<?xml version="1.0" standalone="no"?>
<!DOCTYPE svg PUBLIC "-//W3C//DTD SVG 1.1//EN" "http://www.w3.org/Graphics/SVG/1.1/DTD/svg11.dtd" >
<svg xmlns="http://www.w3.org/2000/svg" xmlns:xlink="http://www.w3.org/1999/xlink" version="1.1">
<metadata></metadata>
<defs>
<font id="martel_sansextrabold" horiz-adv-x="1300" >
<font-face units-per-em="2048" ascent="1638" descent="-410" />
<missing-glyph horiz-adv-x="512" />
<glyph horiz-adv-x="0" />
<glyph horiz-adv-x="682" />
<glyph unicode="&#xd;" horiz-adv-x="0" />
<glyph unicode=" "  horiz-adv-x="512" />
<glyph unicode="&#x09;" horiz-adv-x="512" />
<glyph unicode="&#xa0;" horiz-adv-x="512" />
<glyph unicode="!" horiz-adv-x="679" d="M147 178q0 80 56.5 136.5t136.5 56.5q79 0 135.5 -56.5t56.5 -136.5t-56 -136t-136 -56t-136.5 56.5t-56.5 135.5zM164 1393h334l-21 -936h-272z" />
<glyph unicode="&#x22;" horiz-adv-x="1226" d="M188 1567h334l-47 -740h-237zM705 1567h333l-47 -740h-237z" />
<glyph unicode="#" horiz-adv-x="1607" d="M45 330l70 229h209l84 275h-207l71 229h207l101 330h292l-100 -330h289l100 330h293l-100 -330h207l-72 -229h-207l-84 -275h209l-72 -229h-209l-100 -330h-293l101 330h-289l-101 -330h-292l100 330h-207zM616 559h289l84 275h-289z" />
<glyph unicode="$" d="M119 121l67 223q213 -94 406 -94q114 0 192 38.5t78 110.5q0 50 -38.5 87.5t-100 62.5t-136 49t-149 54t-136 69.5t-100 103.5t-38.5 148q0 152 101.5 251t279.5 132v280h276v-272q173 -18 309 -94l-69 -221q-174 88 -334 88q-110 0 -178 -37.5t-68 -104.5 q0 -40 30 -72.5t79 -54t112 -45t128.5 -44.5t128.5 -54t112 -71.5t79 -99t30 -134.5h-2q0 -145 -92 -243t-265 -136v-293h-276v270q-249 9 -426 103z" />
<glyph unicode="%" horiz-adv-x="2211" d="M39 969q0 88 26 165.5t76 139t131.5 97.5t184.5 36t185 -36t132.5 -97.5t76.5 -138.5t26 -164t-26 -164t-76.5 -138.5t-132.5 -97.5t-185 -36q-83 0 -152 23.5t-117.5 64t-82.5 95.5t-50 118.5t-16 132.5zM322 971q0 -123 30.5 -181.5t102.5 -58.5q73 0 104 58t31 182 t-31 182.5t-104 58.5q-72 0 -102.5 -59t-30.5 -182zM582 49l819 1417l227 -137l-819 -1417zM1337 412q0 88 26 165.5t76 139t131.5 97.5t184.5 36t185 -36t132.5 -97.5t76.5 -138.5t26 -164t-26 -164.5t-76.5 -139t-132.5 -97.5t-185 -36q-83 0 -152 23.5t-117.5 64 t-82.5 96t-50 119t-16 132.5zM1620 414q0 -123 30.5 -181.5t102.5 -58.5q73 0 104 58t31 182t-31 182.5t-104 58.5q-72 0 -102.5 -59t-30.5 -182z" />
<glyph unicode="&#x26;" horiz-adv-x="1505" d="M33 362q0 282 301 424q-67 78 -96 136.5t-29 130.5q0 75 26 139.5t76 115.5t132 80t186 29q194 0 302.5 -93.5t108.5 -227.5q0 -122 -69 -210.5t-219 -164.5l213 -238q91 158 153 391l299 -30q-71 -306 -272 -549q95 -76 190 -76q49 0 97 10l53 -219l2 -2 q-76 -26 -187 -26q-96 0 -176 30t-168 101q-198 -142 -411 -142q-242 0 -377 109t-135 282zM358 389q0 -78 58.5 -133t163.5 -55q115 0 213 73l-297 330q-138 -99 -138 -213v-2zM518 1067q0 -49 17.5 -88t60.5 -90q74 47 105.5 90.5t31.5 97.5q0 44 -28 75.5t-80 31.5h2 q-53 0 -81 -34t-28 -83z" />
<glyph unicode="'" horiz-adv-x="710" d="M188 1567h334l-47 -740h-237z" />
<glyph unicode="(" horiz-adv-x="712" d="M113 602q0 269 99 491t251 369l182 -151q-91 -115 -154 -309t-63 -400q0 -212 62 -401t153 -310l-180 -149q-152 147 -251 369t-99 491z" />
<glyph unicode=")" horiz-adv-x="712" d="M66 -106q92 115 154.5 308.5t62.5 399.5q0 212 -62 401t-153 310l180 149q152 -147 251 -369t99 -491t-99 -491t-251 -369z" />
<glyph unicode="*" horiz-adv-x="1099" d="M74 942l86 262l311 -164l-61 353h278l-57 -346l309 157l86 -262l-362 -49l272 -246l-240 -166l-147 318l-148 -318l-237 166l276 248z" />
<glyph unicode="+" d="M66 500v223h464v463h240v-463h465v-223h-465v-482h-240v482h-464z" />
<glyph unicode="," horiz-adv-x="681" d="M88 -240q56 42 86 108.5t32.5 142.5t-11 152.5t-41.5 149.5l329 47q30 -113 32 -211t-20 -175t-67.5 -142t-104.5 -113.5t-137 -89.5z" />
<glyph unicode="-" horiz-adv-x="595" d="M41 477v223h514v-223h-514z" />
<glyph unicode="." horiz-adv-x="681" d="M147 178q0 80 56.5 136.5t136.5 56.5q79 0 135.5 -56.5t56.5 -136.5t-56 -136t-136 -56t-136.5 56.5t-56.5 135.5z" />
<glyph unicode="/" horiz-adv-x="876" d="M-14 -483l587 1933h318l-590 -1933h-315z" />
<glyph unicode="0" d="M84 709q0 149 34 275t101 224t177.5 153.5t252.5 55.5t252.5 -55.5t177.5 -153.5t101 -224t34 -275q0 -122 -21 -230.5t-65.5 -201.5t-110 -160.5t-160 -105.5t-208.5 -38t-208.5 38t-160 105.5t-110 160.5t-65.5 201.5t-21 230.5zM410 709q0 -103 13 -189.5t40.5 -158 t75.5 -112t112 -40.5t112.5 40.5t76 112t40.5 158t13 189.5q0 97 -13 179t-40.5 149.5t-76 106t-112.5 38.5t-112 -38.5t-75.5 -106t-40.5 -149.5t-13 -179z" />
<glyph unicode="1" d="M219 0v227h326v918l-258 -33l-54 223l361 58l2 -2v2h272v-1166h324v-227h-973z" />
<glyph unicode="2" d="M90 1245q215 170 488 170q143 0 260.5 -48.5t187.5 -141t70 -211.5q0 -153 -91.5 -310t-283.5 -331l-152 -137v-5h613v-231h-1053v172l338 328q311 300 311 481q0 93 -64.5 147t-181.5 54q-175 0 -370 -150z" />
<glyph unicode="3" d="M88 86l68 219q195 -98 407 -98q128 0 199.5 53.5t71.5 142.5q0 91 -61 146t-167 55q-105 0 -223 -33l-23 228q199 50 262 77q107 47 129 125q7 24 7 52q0 57 -44.5 92t-121.5 35q-187 0 -391 -125l-72 211q199 149 479 149q214 0 343.5 -94.5t129.5 -251.5 q0 -193 -221 -311v-2q132 -37 214.5 -124t82.5 -210q0 -92 -40 -173.5t-113.5 -143.5t-187.5 -98t-253 -36q-298 0 -475 115z" />
<glyph unicode="4" d="M51 317v181l676 895h2h311v-844h228v-232h-228v-317h-323v317h-666zM358 549h359v223l8 285l-2 -2l-188 -275z" />
<glyph unicode="5" d="M117 86l67 219q186 -98 389 -98q142 0 215.5 60.5t73.5 164.5t-64.5 161.5t-199.5 57.5q-151 0 -354 -71l-47 34l65 779h881v-232h-596l-29 -284q65 10 115 10q259 0 406 -120.5t147 -315.5q0 -98 -41 -184.5t-117.5 -152.5t-194 -104.5t-260.5 -38.5q-285 0 -456 115z " />
<glyph unicode="6" d="M98 547q0 364 237 591t652 279l45 -223q-113 -25 -194 -53t-154.5 -69t-124 -99t-82.5 -135q111 49 223 49h-2q115 0 211.5 -39t158 -103t95 -144t33.5 -165q0 -93 -37.5 -177t-106 -148.5t-173.5 -103t-232 -38.5q-251 0 -400 147t-149 431zM422 512q0 -152 61 -231.5 t164 -79.5h-2q109 0 167 62t58 157q0 101 -55 168t-151 67q-140 0 -242 -102v-41z" />
<glyph unicode="7" d="M88 1161v232h1122v-191l-624 -1202h-371l664 1157v4h-791z" />
<glyph unicode="8" d="M104 350q0 223 248 355q-99 53 -153 126t-54 177q0 84 31.5 157t92 130t159 89.5t223.5 32.5q123 0 221 -30.5t158 -82.5t91.5 -116t31.5 -135q0 -103 -59.5 -178.5t-175.5 -137.5v2q130 -61 203 -143.5t73 -206.5q0 -86 -33 -160t-97.5 -131.5t-170.5 -90t-242 -32.5 q-137 0 -244.5 32t-172 85.5t-97.5 119t-33 138.5zM426 365q0 -66 55 -113t168 -47q112 0 165.5 47t53.5 117q0 42 -19 76.5t-58 62t-79 47t-102 43.5q-87 -39 -135.5 -99t-48.5 -134zM467 1024q0 -64 57 -108.5t164 -86.5q141 89 141 209q0 63 -44.5 106.5t-133.5 43.5 l-2 -2q-91 0 -136.5 -47t-45.5 -115z" />
<glyph unicode="9" d="M100 948q0 93 37.5 177t106 149.5t173.5 104t232 38.5q251 0 400 -147t149 -432q0 -241 -109 -426.5t-308 -297.5t-472 -145l-45 224q228 50 361.5 128.5t195.5 227.5q-111 -49 -223 -49q-115 0 -211.5 38.5t-158 102.5t-95 143.5t-33.5 163.5zM424 967 q0 -101 55.5 -169.5t151.5 -68.5h2q136 0 241 105v40q0 152 -60.5 232t-164.5 80q-109 0 -167 -62.5t-58 -156.5z" />
<glyph unicode=":" horiz-adv-x="681" d="M147 178q0 80 56.5 136.5t136.5 56.5q79 0 135.5 -56.5t56.5 -136.5t-56 -136t-136 -56t-136.5 56.5t-56.5 135.5zM147 956q0 80 56.5 136.5t136.5 56.5q79 0 135.5 -56.5t56.5 -136.5q0 -78 -56.5 -134t-135.5 -56t-136 56t-57 134z" />
<glyph unicode=";" horiz-adv-x="681" d="M88 -240q56 42 86 108.5t32.5 142t-11 151.5t-41.5 149l329 45q30 -113 31.5 -211t-20.5 -173.5t-67.5 -140.5t-104.5 -113t-136 -89zM147 956q0 80 56.5 136.5t136.5 56.5q79 0 135.5 -56.5t56.5 -136.5q0 -78 -56.5 -134t-135.5 -56t-136 56t-57 134z" />
<glyph unicode="&#x3c;" d="M66 494v215l1169 446v-237l-891 -316l891 -315v-238z" />
<glyph unicode="=" d="M66 258v223h1169v-223h-1169zM66 741v224h1169v-224h-1169z" />
<glyph unicode="&#x3e;" d="M66 49v238l890 315l-890 316v237l1169 -446v-215z" />
<glyph unicode="?" horiz-adv-x="1064" d="M143 1161v234q174 0 311 -20.5t225.5 -55.5t146.5 -84.5t82 -103.5t24 -117q0 -140 -109 -234t-309 -159l-12 -164h-226l-18 377q193 32 271.5 68.5t78.5 113.5q0 145 -465 145zM199 178q0 80 56.5 136.5t135.5 56.5t136 -56.5t57 -136.5q0 -79 -56.5 -135.5 t-136.5 -56.5q-79 0 -135.5 56t-56.5 136z" />
<glyph unicode="@" horiz-adv-x="1906" d="M90 535q0 169 51.5 310.5t140 239t207.5 165t252.5 99t276.5 31.5q187 0 340.5 -56.5t252.5 -153.5t152.5 -224t53.5 -270q0 -139 -45 -253t-118 -184t-160 -107.5t-177 -37.5q-161 0 -230 111q-130 -113 -256 -113q-98 0 -160.5 66t-62.5 166q0 128 97.5 203t347.5 143 v4q0 133 -107 133q-63 0 -128.5 -27.5t-149.5 -95.5l-52 184q180 142 371 142q161 0 231 -87.5t70 -267.5v-276q0 -44 15 -63t49 -19q32 0 64.5 24t60.5 69t46 119.5t19 164.5q2 209 -138.5 347t-383.5 138q-137 0 -254.5 -39t-207.5 -114.5t-141.5 -197t-51.5 -276.5 q0 -152 47.5 -272t131 -194.5t191.5 -113t234 -38.5q231 0 417 111l89 -191q-225 -139 -508 -139q-133 0 -258 31t-238 98t-197.5 163.5t-134 237.5t-49.5 310zM844 350q0 -55 65 -55q64 0 144 63v138q-122 -42 -165.5 -76.5t-43.5 -69.5z" />
<glyph unicode="A" horiz-adv-x="1419" d="M18 0l537 1411h309l539 -1411h-330l-119 350h-491l-119 -350h-326zM539 573h340l-170 504z" />
<glyph unicode="B" horiz-adv-x="1386" d="M195 0v1393h534q254 0 382 -84t128 -260q0 -112 -67.5 -195.5t-194.5 -116.5q158 -32 240.5 -126.5t82.5 -231.5q0 -185 -145.5 -282t-425.5 -97h-534zM518 227h211q120 0 184 49t64 148q0 199 -248 199h-211v-396zM518 850h211q186 0 186 160q0 84 -47 119.5t-139 35.5 h-211v-315z" />
<glyph unicode="C" horiz-adv-x="1402" d="M98 698q0 114 31 219.5t95 196.5t155 158.5t219.5 106t280.5 38.5q253 0 428 -112l-76 -226q-155 103 -352 103q-109 0 -196.5 -38t-144 -104.5t-86.5 -154.5t-30 -189q0 -140 47.5 -248t148 -173.5t240.5 -65.5q207 0 385 110l70 -219q-88 -56 -206.5 -91.5 t-248.5 -35.5q-151 0 -277 39t-214 107t-149.5 160t-90.5 198t-29 221z" />
<glyph unicode="D" horiz-adv-x="1570" d="M195 0v1393h555q173 0 311.5 -53.5t228 -147.5t136.5 -220t47 -274q0 -151 -47 -278t-136.5 -221t-227.5 -146.5t-312 -52.5h-555zM518 231h232q189 0 293 126t104 339q0 210 -104.5 337.5t-292.5 127.5h-232v-930z" />
<glyph unicode="E" horiz-adv-x="1222" d="M195 0v1393h880v-228h-557v-315h475v-227h-475v-396h598v-227h-921z" />
<glyph unicode="F" horiz-adv-x="1120" d="M195 0v1393h880v-232h-557v-381h475v-229h-475v-551h-323z" />
<glyph unicode="G" horiz-adv-x="1458" d="M98 696q0 114 31 219.5t95 196.5t155 158.5t219.5 106t280.5 38.5q253 0 428 -112l-76 -226q-155 103 -352 103q-109 0 -196.5 -38t-144 -104.5t-86.5 -154.5t-30 -189q0 -140 47.5 -248t148 -173.5t240.5 -65.5q92 0 180 16v457l314 -2v-606q-96 -44 -225.5 -72.5 t-268.5 -28.5q-151 0 -277 39t-214 107t-149.5 160t-90.5 198t-29 221z" />
<glyph unicode="H" horiz-adv-x="1654" d="M195 0v1393h323v-541h617v541h323v-1393h-323v621h-617v-621h-323z" />
<glyph unicode="I" horiz-adv-x="714" d="M195 0v1393h323v-1393h-323z" />
<glyph unicode="J" horiz-adv-x="714" d="M-131 -475l22 229q72 -10 123 -10q95 0 138 57t43 176v1416h323v-1420q0 -225 -111.5 -345t-338.5 -120q-73 0 -199 17z" />
<glyph unicode="K" horiz-adv-x="1484" d="M195 0v1393h323v-621l512 621h373l-569 -641l628 -752h-391l-553 721v-721h-323z" />
<glyph unicode="L" horiz-adv-x="1148" d="M195 0v1393h323v-1166h598v-227h-921z" />
<glyph unicode="M" horiz-adv-x="1865" d="M195 0v1393h303l434 -701l434 701h303v-1393h-315v397l20 496l-321 -526h-242l-328 534l27 -504v-397h-315z" />
<glyph unicode="N" horiz-adv-x="1654" d="M195 0v1393h290l674 -924l-24 471v453h323v-1393l-289 -2l-675 930l24 -463v-465h-323z" />
<glyph unicode="O" horiz-adv-x="1669" d="M98 696q0 148 48 277.5t138.5 229t232.5 157t319 57.5t319 -58t232 -157.5t138 -229t48 -276.5q0 -149 -48 -279t-138 -229.5t-232 -157t-319 -57.5t-319 57.5t-232.5 157.5t-138.5 230t-48 278zM422 696q0 -214 110 -350.5t304 -136.5t303.5 136.5t109.5 350.5 q0 139 -47 247.5t-142 173.5t-224 65t-224.5 -65t-142.5 -173.5t-47 -247.5z" />
<glyph unicode="P" horiz-adv-x="1361" d="M195 0v1393h550q286 0 420.5 -110.5t134.5 -338.5t-134.5 -338t-420.5 -110h-227v-496h-323zM518 723h227q121 1 176.5 54t55.5 167q0 113 -55.5 167t-176.5 54h-227v-442z" />
<glyph unicode="Q" horiz-adv-x="1669" d="M100 694q0 148 48 277.5t138.5 229t232.5 157t319 57.5t319 -58t232 -157.5t138 -229t48 -276.5q0 -218 -99.5 -390.5t-287.5 -258.5l100 -119q146 -174 307 -174q128 0 242 68l35 -226q-144 -88 -285 -88q-152 0 -270.5 48.5t-210.5 158.5l-217 258h-51 q-177 0 -319 57.5t-232.5 157.5t-138.5 230t-48 278zM424 692q0 -214 110 -350.5t304 -136.5t303.5 136.5t109.5 350.5q0 139 -47 247.5t-142 173.5t-224 65t-224.5 -65t-142.5 -173.5t-47 -247.5z" />
<glyph unicode="R" horiz-adv-x="1488" d="M193 -2v1393h534q284 0 417.5 -102t133.5 -308q0 -291 -231 -379l405 -602h-373l-350 535h-213v-537h-323zM516 762h211q119 0 173 49t54 152q0 102 -54 151t-173 49h-211v-401z" />
<glyph unicode="S" horiz-adv-x="1245" d="M86 78l68 223q209 -92 409 -92q117 0 197 43.5t80 126.5q0 42 -24.5 75.5t-65.5 58t-94 46t-112 42.5t-117.5 44.5t-111.5 55.5t-94 71t-65.5 96.5t-24.5 126.5q0 200 150.5 311t404.5 111q236 0 414 -102l-70 -221q-181 88 -334 88q-112 0 -181 -43t-69 -123 q0 -42 30.5 -77t80.5 -58t114 -49t130.5 -49t130.5 -58.5t114 -77t80.5 -105.5t30.5 -143q0 -200 -153.5 -313t-436.5 -113q-289 0 -481 105z" />
<glyph unicode="T" horiz-adv-x="1222" d="M49 1161v232h1127v-232h-404v-1161h-323v1161h-400z" />
<glyph unicode="U" horiz-adv-x="1613" d="M174 549v844h324v-842q0 -342 309 -342q307 0 307 342v842h324v-840q0 -271 -162.5 -425.5t-468.5 -154.5q-308 0 -470.5 154t-162.5 422z" />
<glyph unicode="V" horiz-adv-x="1458" d="M29 1393h329l373 -1098l371 1098h325l-532 -1405h-332z" />
<glyph unicode="W" horiz-adv-x="2232" d="M29 1393h329l285 -1067l305 1067h309l308 -1076l303 1076h334l-476 -1405h-325l-299 1009l-299 -1009h-328z" />
<glyph unicode="X" horiz-adv-x="1507" d="M41 0l522 717l-491 676h381l299 -478l299 478h374l-491 -670l532 -723h-379l-335 510l-336 -510h-375z" />
<glyph unicode="Y" horiz-adv-x="1394" d="M20 1393h342l334 -600l338 600h338l-514 -830v-563h-323v557z" />
<glyph unicode="Z" horiz-adv-x="1429" d="M113 0v178l807 983h-781v232h1190v-195l-803 -967h832v-231h-1245z" />
<glyph unicode="[" horiz-adv-x="792" d="M147 -260v1683h498v-213l-184 -20v-1217l184 -20v-213h-498z" />
<glyph unicode="\" horiz-adv-x="876" d="M-14 1450h317l588 -1933h-316z" />
<glyph unicode="]" horiz-adv-x="792" d="M147 -45l185 18v1217l-185 18v215h498v-1683h-498v215z" />
<glyph unicode="^" d="M213 297l299 565h276l299 -565h-290l-146 326l-145 -326h-293z" />
<glyph unicode="_" horiz-adv-x="1024" d="M0 -330h1024v-223h-1024v223z" />
<glyph unicode="`" horiz-adv-x="1024" d="M236 1642h335l199 -434h-242z" />
<glyph unicode="a" horiz-adv-x="1230" d="M86 262q0 76 27.5 134.5t66 97t122 75.5t151 59.5t198.5 59.5l86 25v26q0 203 -176 203q-89 0 -182.5 -38t-214.5 -128l-70 213q285 185 565 185q93 0 162.5 -23t122 -74.5t79 -140.5t26.5 -215v-426q0 -44 17.5 -64t57.5 -20q34 0 80 12l13 -213q-111 -26 -203 -26h-9 q-191 0 -245 131q-181 -133 -361 -133q-137 0 -225 80.5t-88 199.5zM399 301q0 -94 105 -94q92 0 233 92v236l-53 -19q-163 -56 -224 -102t-61 -113z" />
<glyph unicode="b" horiz-adv-x="1376" d="M172 0v1638h313v-542q129 78 281 78q236 0 380 -154t144 -438q0 -126 -30 -229t-81.5 -172.5t-122.5 -117t-151.5 -69t-169.5 -21.5q-160 0 -305 101l-33 -74h-225zM485 260q98 -59 213 -59q142 0 208.5 95.5t66.5 285.5q0 103 -19.5 176.5t-55 113t-76.5 57t-91 17.5 q-134 0 -246 -72v-614z" />
<glyph unicode="c" horiz-adv-x="1116" d="M86 571q0 97 21.5 184t70 164.5t119.5 133.5t176 88.5t234 32.5q86 0 177.5 -23t147.5 -59l-67 -218q-123 72 -258 72q-145 0 -224.5 -97.5t-79.5 -275.5q0 -179 71.5 -276.5t201.5 -97.5q86 0 157 29.5t152 84.5l90 -198q-73 -62 -176.5 -102t-222.5 -40 q-148 0 -262.5 46.5t-185 128.5t-106.5 189t-36 234z" />
<glyph unicode="d" horiz-adv-x="1376" d="M88 565q0 131 33 234t90 172t139 114.5t175.5 65.5t203.5 20q92 0 164 -16v483l315 -4v-1638h-233l-31 88q-146 -113 -330 -113q-238 0 -382 154.5t-144 439.5zM406 563l4 2q0 -104 19.5 -178t54.5 -113.5t76 -57t91 -17.5q137 0 246 73v654q-69 16 -149 16 q-342 0 -342 -379z" />
<glyph unicode="e" horiz-adv-x="1230" d="M86 571q0 131 36.5 240t108 190.5t185.5 127t260 45.5q224 0 345.5 -123t123.5 -346q0 -80 -25 -166h-725q6 -167 74 -253.5t207 -86.5q97 0 179.5 37t176.5 108l90 -199q-102 -89 -207.5 -130.5t-238.5 -41.5q-148 0 -262.5 46.5t-185 128.5t-106.5 189t-36 234z M414 743h428v29q-1 92 -52 141.5t-133 49.5h5q-195 0 -248 -220z" />
<glyph unicode="f" horiz-adv-x="886" d="M53 922v133l174 65v82q0 217 110.5 333t334.5 116q71 0 200 -17l-22 -221q-75 10 -127 10q-182 0 -182 -225v-51h327v-225h-327v-922h-314v922h-174z" />
<glyph unicode="g" horiz-adv-x="1253" d="M59 -199q0 75 44 138.5t128 126.5q-112 60 -112 174q0 120 178 247q-81 53 -122.5 131.5t-41.5 169.5q0 77 29.5 145.5t85.5 122.5t147 86t205 32q98 0 191 -27h452l2 -225l-209 26q35 -75 35 -155q0 -76 -29.5 -144.5t-85.5 -122.5t-147.5 -86t-206.5 -32q-57 0 -115 10 q-61 -58 -61 -105q0 -36 23.5 -52.5t82.5 -16.5h318q178 0 278.5 -76.5t100.5 -206.5q0 -129 -87.5 -236t-242.5 -169t-344 -62q-109 0 -196 18t-142 47.5t-91.5 70t-51.5 83t-15 88.5zM358 -174q0 -105 197 -105q156 0 265.5 61t109.5 132h-2q0 100 -152 100h-295h-24 q-99 -99 -99 -188zM434 791q0 -82 46 -127.5t122 -45.5q75 0 121.5 46t46.5 127q0 83 -45.5 127.5t-122.5 44.5t-122.5 -44.5t-45.5 -127.5z" />
<glyph unicode="h" horiz-adv-x="1366" d="M172 0v1638h313v-565q174 101 340 101q113 0 189.5 -32t117.5 -94.5t57.5 -138.5t16.5 -180v-729h-313v692q0 139 -35.5 194.5t-132.5 55.5q-117 0 -240 -86v-856h-313z" />
<glyph unicode="i" horiz-adv-x="661" d="M147 1530q0 75 54 128.5t129 53.5t129.5 -53.5t54.5 -128.5t-54.5 -128.5t-129.5 -53.5t-129 53.5t-54 128.5zM174 0v1147h313v-1147h-313z" />
<glyph unicode="j" horiz-adv-x="655" d="M-162 -475l23 221q75 -10 127 -10q182 0 182 225v1186h313v-1190q0 -217 -110 -333t-336 -116q-73 0 -199 17zM145 1530q0 75 54 128.5t129 53.5t129.5 -53.5t54.5 -128.5t-54.5 -128.5t-129.5 -53.5t-129 53.5t-54 128.5z" />
<glyph unicode="k" horiz-adv-x="1271" d="M172 0v1638h313v-985l369 494h322l-402 -522l477 -625h-344l-422 596v-596h-313z" />
<glyph unicode="l" horiz-adv-x="655" d="M172 0v1638h313v-1638h-313z" />
<glyph unicode="m" horiz-adv-x="2074" d="M172 0v1147h234l34 -100q198 127 381 127q227 0 314 -140q208 140 401 140q111 0 187 -32t116.5 -94.5t57 -138.5t16.5 -180v-729h-314v692q0 139 -34.5 194.5t-128.5 55.5q-113 0 -242 -90l-4 8q8 -55 8 -131v-729h-313v692q0 139 -35 194.5t-129 55.5q-111 0 -236 -86 v-856h-313z" />
<glyph unicode="n" horiz-adv-x="1366" d="M172 0v1147h234l34 -100q198 127 383 127q113 0 189.5 -32t117.5 -94.5t57.5 -138.5t16.5 -180v-729h-313v692q0 139 -35.5 194.5t-132.5 55.5q-115 0 -238 -86v-856h-313z" />
<glyph unicode="o" horiz-adv-x="1351" d="M86 571q0 131 37 240.5t108.5 190.5t185 126.5t259.5 45.5q145 0 260 -49.5t186.5 -134t108.5 -190.5t37 -225q0 -120 -37 -226.5t-108.5 -191.5t-186.5 -134.5t-260 -49.5t-259 46t-185.5 127.5t-108.5 189t-37 235.5zM403 573q0 -374 275 -374q272 0 272 374 q0 373 -272 373q-275 0 -275 -373z" />
<glyph unicode="p" horiz-adv-x="1376" d="M174 -477v1624h234l30 -86q146 113 328 113v2q235 0 379.5 -159.5t144.5 -443.5q0 -157 -49 -274.5t-137.5 -187t-201.5 -103t-251 -33.5q-87 0 -164 17v-469h-313zM483 221q72 -20 148 -20h-2q344 0 344 381q0 103 -20 177.5t-55.5 114t-77 57t-91.5 17.5 q-136 0 -246 -71v-656z" />
<glyph unicode="q" horiz-adv-x="1376" d="M88 565q0 126 30 229t82 172.5t123.5 117t152 69t169.5 21.5q164 0 303 -103l31 76l229 2v-1632h-313v536q-127 -80 -281 -80q-238 0 -382 153.5t-144 438.5zM406 567q0 -364 241 -364l2 -2q137 0 246 73v611q-103 63 -215 63q-142 0 -208 -95.5t-66 -285.5z" />
<glyph unicode="r" horiz-adv-x="929" d="M172 0v1147h234l49 -139q105 89 204.5 126t210.5 37v-299q-105 0 -192.5 -16t-192.5 -65v-791h-313z" />
<glyph unicode="s" horiz-adv-x="1093" d="M86 55l64 217q182 -73 339 -73q94 0 152.5 29.5t58.5 90.5q0 37 -32.5 66.5t-84 51t-114.5 42.5t-125.5 49t-114 63t-84 90.5t-32.5 125.5q0 180 130.5 273.5t356.5 93.5q93 0 190 -19.5t171 -54.5l-66 -219q-146 65 -287 65q-88 0 -137 -25.5t-49 -76.5 q0 -37 32.5 -65.5t84.5 -48t114.5 -39.5t125 -47.5t114.5 -64.5t84.5 -98.5t32.5 -140.5q0 -173 -133 -270t-383 -97q-230 0 -408 82z" />
<glyph unicode="t" horiz-adv-x="962" d="M39 922v133l211 80l88 301h188v-289h328v-225h-328v-498q0 -116 38 -166q37 -48 110 -47h6q96 3 182 53l51 -196q-122 -84 -292 -84q-206 0 -307 95t-101 273v570h-174z" />
<glyph unicode="u" horiz-adv-x="1366" d="M164 418v731h313v-692q0 -141 35.5 -196.5t132.5 -55.5q110 0 238 86v856l315 2v-1147h-233l-35 98q-195 -125 -385 -125q-91 0 -158.5 21.5t-109.5 59t-67.5 95t-35.5 121t-10 146.5z" />
<glyph unicode="v" horiz-adv-x="1226" d="M16 1147h320l278 -842l279 842h313l-442 -1159h-305z" />
<glyph unicode="w" horiz-adv-x="1785" d="M25 1147h319l191 -832l210 832h302l206 -832l195 832h317l-362 -1159h-301l-207 829l-207 -829h-301z" />
<glyph unicode="x" horiz-adv-x="1257" d="M18 0l433 594l-400 553h342l234 -377l233 377h338l-401 -547l440 -600h-342l-268 408l-269 -408h-340z" />
<glyph unicode="y" horiz-adv-x="1251" d="M25 -481l22 231q105 -31 176 -31q97 0 166.5 47.5t124.5 155.5l-473 1225h319l285 -844l275 844h315l-490 -1299q-69 -195 -191 -280.5t-296 -85.5q-135 0 -233 37z" />
<glyph unicode="z" horiz-adv-x="1118" d="M59 0v170l611 752h-582v225h940v-174l-608 -750h629v-223h-990z" />
<glyph unicode="{" horiz-adv-x="792" d="M27 489v201q108 11 160.5 49t52.5 111q0 49 -19.5 140.5t-19.5 133.5q0 87 42.5 151.5t117 100.5t163 52.5t191.5 15.5v-203q-205 3 -205 -127q0 -69 19.5 -157.5t19.5 -137.5q0 -84 -41.5 -143t-116.5 -84v-4q77 -25 117.5 -84t40.5 -146q0 -49 -19.5 -136t-19.5 -156 q0 -127 205 -127v-205q-104 0 -191.5 16.5t-161.5 52.5t-116.5 100.5t-42.5 151.5q0 42 19.5 133t19.5 140q0 74 -52.5 111.5t-162.5 49.5z" />
<glyph unicode="|" horiz-adv-x="796" d="M236 -483v2136h323v-2136h-323z" />
<glyph unicode="}" horiz-adv-x="792" d="M78 -61q205 0 205 127q0 69 -19.5 157t-19.5 135q0 179 157 230v4q-75 25 -116 84t-41 143q0 49 19.5 137.5t19.5 157.5q0 130 -205 127v203q103 1 191 -15.5t162.5 -52.5t117.5 -100.5t43 -151.5q0 -42 -19.5 -133t-19.5 -141q0 -73 52 -110.5t161 -49.5v-201 q-110 -12 -162.5 -49.5t-52.5 -111.5q0 -49 19.5 -140t19.5 -133q0 -87 -42.5 -151.5t-117 -100.5t-162 -52.5t-190.5 -16.5v205z" />
<glyph unicode="~" d="M72 512q37 50 70.5 86.5t82.5 76.5t108.5 61.5t125.5 21.5q47 0 92.5 -14.5t81 -35.5t69 -42t71.5 -35.5t75 -14.5q134 0 237 148l146 -141q-39 -51 -71 -85.5t-80.5 -74t-107 -60t-124.5 -20.5q-54 0 -109.5 22t-94 48.5t-89 48.5t-96.5 22q-130 0 -242 -153z" />
<glyph unicode="&#xa2;" d="M88 694q0 104 30 196t91 170t163.5 132t237.5 74v374h277v-374q91 -19 175 -60t142 -96l-67 -215q-188 154 -363 154t-271.5 -93t-96.5 -262q0 -178 89.5 -275t249.5 -97q114 0 209 49.5t203 142.5l88 -197v2q-145 -159 -358 -206v-363h-277v354q-131 18 -232 71 t-163.5 132t-94.5 176.5t-32 210.5z" />
<glyph unicode="&#xa3;" d="M141 588v225h115q-31 95 -31 199q0 192 138 299.5t376 107.5q232 -3 430 -106l-71 -215q-169 86 -312 86q-118 0 -181.5 -53t-63.5 -132q0 -95 43 -186h428v-225h-326q16 -62 16 -133q0 -109 -100 -226h578v-229h-1020v172q227 134 227 283q0 64 -27 133h-219z" />
<glyph unicode="&#xa5;" d="M84 1393h334l235 -392l240 392h330l-346 -508h268v-226h-336v-86h336v-225h-336v-348h-315v348h-340v225h340v86h-340v226h272z" />
<glyph unicode="&#xa8;" horiz-adv-x="1024" d="M94 1513q0 67 50 117.5t118 50.5t118 -50.5t50 -117.5t-50 -117t-118 -50t-118 50t-50 117zM594 1513q0 67 50 117.5t118 50.5t118 -50.5t50 -117.5t-50 -117t-118 -50t-118 50t-50 117z" />
<glyph unicode="&#xa9;" horiz-adv-x="1675" d="M98 698q0 148 54 279.5t149.5 229t235 154t301.5 56.5t301.5 -56.5t235.5 -154t150 -229t54 -279.5q0 -199 -92 -364t-262.5 -263t-386.5 -98q-162 0 -301.5 57.5t-235 155.5t-149.5 230.5t-54 281.5zM326 698q0 -150 61.5 -271.5t179 -194t271.5 -72.5t272.5 72.5 t180 194t61.5 271.5q0 149 -61.5 270t-180 193t-272.5 72t-271.5 -72t-179 -193t-61.5 -270zM479 698q0 158 104 268.5t287 110.5q137 0 230 -59l-53 -160q-72 39 -148 39q-90 0 -143.5 -56.5t-53.5 -142.5q0 -89 49.5 -145.5t139.5 -56.5q82 0 147 45l64 -160 q-43 -29 -107.5 -47.5t-132.5 -18.5q-94 0 -168.5 31.5t-120.5 85t-70 121.5t-24 145z" />
<glyph unicode="&#xab;" horiz-adv-x="1277" d="M98 530l324 433l221 -158l-209 -275l209 -274l-221 -158zM639 530l324 433l221 -158l-209 -275l209 -274l-221 -158z" />
<glyph unicode="&#xad;" horiz-adv-x="595" d="M41 477v223h514v-223h-514z" />
<glyph unicode="&#xae;" horiz-adv-x="987" d="M68 1067q0 183 124 304.5t304 121.5q178 0 300 -121.5t122 -304.5q0 -181 -122 -303.5t-300 -122.5q-179 0 -303.5 122.5t-124.5 303.5zM188 1067q0 -132 89 -220.5t215 -88.5q129 0 218 88.5t89 220.5q0 134 -89 223.5t-218 89.5q-126 0 -215 -90t-89 -223zM348 899v340 h164q66 0 102.5 -33t36.5 -86l-2 2q0 -68 -47 -96l86 -127h-123l-63 102h-47v-102h-107zM453 1085h49q24 0 32.5 9.5t8.5 29.5q0 35 -41 35h-49v-74z" />
<glyph unicode="&#xb4;" horiz-adv-x="1024" d="M254 1208l199 434h335l-292 -434h-242z" />
<glyph unicode="&#xb8;" horiz-adv-x="1024" d="M309 -158l131 242h205l-98 -180q79 -6 131.5 -52t52.5 -114q0 -40 -18 -77.5t-57.5 -73t-114 -58.5t-174.5 -27l-43 140q101 8 138.5 28.5t37.5 53.5q0 23 -18.5 36t-49.5 13q-26 0 -59 -13z" />
<glyph unicode="&#xbb;" horiz-adv-x="1277" d="M94 256l209 274l-209 275l221 158l324 -433l-324 -432zM635 256l209 274l-209 275l221 158l324 -433l-324 -432z" />
<glyph unicode="&#xc1;" horiz-adv-x="1419" d="M18 0l537 1411h309l539 -1411h-330l-119 350h-491l-119 -350h-326zM539 573h340l-170 504zM559 1516l281 342h331l-348 -342h-264z" />
<glyph unicode="&#xc9;" horiz-adv-x="1222" d="M195 0v1393h880v-228h-557v-315h475v-227h-475v-396h598v-227h-921zM496 1516l280 342h332l-348 -342h-264z" />
<glyph unicode="&#xcd;" horiz-adv-x="714" d="M195 0v1393h323v-1393h-323zM209 1516l280 342h332l-348 -342h-264z" />
<glyph unicode="&#xd3;" horiz-adv-x="1669" d="M98 696q0 148 48 277.5t138.5 229t232.5 157t319 57.5t319 -58t232 -157.5t138 -229t48 -276.5q0 -149 -48 -279t-138 -229.5t-232 -157t-319 -57.5t-319 57.5t-232.5 157.5t-138.5 230t-48 278zM422 696q0 -214 110 -350.5t304 -136.5t303.5 136.5t109.5 350.5 q0 139 -47 247.5t-142 173.5t-224 65t-224.5 -65t-142.5 -173.5t-47 -247.5zM688 1516l281 342h331l-348 -342h-264z" />
<glyph unicode="&#xd6;" horiz-adv-x="1669" d="M98 696q0 148 48 277.5t138.5 229t232.5 157t319 57.5t319 -58t232 -157.5t138 -229t48 -276.5q0 -149 -48 -279t-138 -229.5t-232 -157t-319 -57.5t-319 57.5t-232.5 157.5t-138.5 230t-48 278zM422 696q0 -214 110 -350.5t304 -136.5t303.5 136.5t109.5 350.5 q0 139 -47 247.5t-142 173.5t-224 65t-224.5 -65t-142.5 -173.5t-47 -247.5zM432 1683q0 63 45.5 109.5t108.5 46.5t109 -46.5t46 -109.5q0 -62 -46 -107.5t-109 -45.5t-108.5 45.5t-45.5 107.5zM932 1683q0 63 45 109.5t108 46.5t109.5 -46.5t46.5 -109.5 q0 -62 -46.5 -107.5t-109.5 -45.5t-108 45.5t-45 107.5z" />
<glyph unicode="&#xda;" horiz-adv-x="1613" d="M174 549v844h324v-842q0 -342 309 -342q307 0 307 342v842h324v-840q0 -271 -162.5 -425.5t-468.5 -154.5q-308 0 -470.5 154t-162.5 422zM659 1516l281 342h332l-348 -342h-265z" />
<glyph unicode="&#xdc;" horiz-adv-x="1613" d="M174 549v844h324v-842q0 -342 309 -342q307 0 307 342v842h324v-840q0 -271 -162.5 -425.5t-468.5 -154.5q-308 0 -470.5 154t-162.5 422zM403 1683q0 63 45.5 109.5t108.5 46.5t109.5 -46.5t46.5 -109.5q0 -62 -46.5 -107.5t-109.5 -45.5t-108.5 45.5t-45.5 107.5z M903 1683q0 63 45.5 109.5t108.5 46.5t109 -46.5t46 -109.5q0 -62 -46 -107.5t-109 -45.5t-108.5 45.5t-45.5 107.5z" />
<glyph unicode="&#xe1;" horiz-adv-x="1230" d="M86 262q0 76 27.5 134.5t66 97t122 75.5t151 59.5t198.5 59.5l86 25v26q0 203 -176 203q-89 0 -182.5 -38t-214.5 -128l-70 213q285 185 565 185q93 0 162.5 -23t122 -74.5t79 -140.5t26.5 -215v-426q0 -44 17.5 -64t57.5 -20q34 0 80 12l13 -213q-111 -26 -203 -26 q-198 -3 -254 131q-181 -133 -361 -133q-137 0 -225 80.5t-88 199.5zM399 301q0 -94 105 -94q92 0 233 92v236l-53 -19q-163 -56 -224 -102t-61 -113zM471 1276l199 434h336l-293 -434h-242z" />
<glyph unicode="&#xe9;" horiz-adv-x="1230" d="M86 571q0 131 36.5 240t108 190.5t185.5 127t260 45.5q224 0 345.5 -123t123.5 -346q0 -80 -25 -166h-725q6 -167 74 -253.5t207 -86.5q97 0 179.5 37t176.5 108l90 -199q-102 -89 -207.5 -130.5t-238.5 -41.5q-148 0 -262.5 46.5t-185 128.5t-106.5 189t-36 234z M414 743h428v29q-1 92 -52 141.5t-133 49.5h5q-195 0 -248 -220zM502 1276l198 434h336l-293 -434h-241z" />
<glyph unicode="&#xed;" horiz-adv-x="661" d="M174 0v1147h313v-1147h-313zM182 1276l199 434h336l-293 -434h-242z" />
<glyph unicode="&#xf3;" horiz-adv-x="1351" d="M86 571q0 131 37 240.5t108.5 190.5t185 126.5t259.5 45.5q145 0 260 -49.5t186.5 -134t108.5 -190.5t37 -225q0 -120 -37 -226.5t-108.5 -191.5t-186.5 -134.5t-260 -49.5t-259 46t-185.5 127.5t-108.5 189t-37 235.5zM403 573q0 -374 275 -374q272 0 272 374 q0 373 -272 373q-275 0 -275 -373zM526 1276l199 434h336l-293 -434h-242z" />
<glyph unicode="&#xf6;" horiz-adv-x="1351" d="M86 571q0 131 37 240.5t108.5 190.5t185 126.5t259.5 45.5q145 0 260 -49.5t186.5 -134t108.5 -190.5t37 -225q0 -120 -37 -226.5t-108.5 -191.5t-186.5 -134.5t-260 -49.5t-259 46t-185.5 127.5t-108.5 189t-37 235.5zM258 1513q0 67 50 117.5t118 50.5t118 -50.5 t50 -117.5t-50 -117t-118 -50t-118 50t-50 117zM403 573q0 -374 275 -374q272 0 272 374q0 373 -272 373q-275 0 -275 -373zM758 1513q0 67 50 117.5t118 50.5t118 -50.5t50 -117.5t-50 -117t-118 -50t-118 50t-50 117z" />
<glyph unicode="&#xfa;" horiz-adv-x="1366" d="M164 418v731h313v-692q0 -141 35.5 -196.5t132.5 -55.5q110 0 238 86v856l315 2v-1147h-233l-35 98q-195 -125 -385 -125q-91 0 -158.5 21.5t-109.5 59t-67.5 95t-35.5 121t-10 146.5zM524 1276l199 434h336l-293 -434h-242z" />
<glyph unicode="&#xfc;" horiz-adv-x="1366" d="M164 418v731h313v-692q0 -141 35.5 -196.5t132.5 -55.5q110 0 238 86v856l315 2v-1147h-233l-35 98q-195 -125 -385 -125q-91 0 -158.5 21.5t-109.5 59t-67.5 95t-35.5 121t-10 146.5zM256 1513q0 67 50 117.5t118 50.5t118 -50.5t50 -117.5t-50 -117t-118 -50t-118 50 t-50 117zM756 1513q0 67 50 117.5t118 50.5t118 -50.5t50 -117.5t-50 -117t-118 -50t-118 50t-50 117z" />
<glyph unicode="&#x150;" horiz-adv-x="1669" d="M98 696q0 148 48 277.5t138.5 229t232.5 157t319 57.5t319 -58t232 -157.5t138 -229t48 -276.5q0 -149 -48 -279t-138 -229.5t-232 -157t-319 -57.5t-319 57.5t-232.5 157.5t-138.5 230t-48 278zM422 696q0 -214 110 -350.5t304 -136.5t303.5 136.5t109.5 350.5 q0 139 -47 247.5t-142 173.5t-224 65t-224.5 -65t-142.5 -173.5t-47 -247.5zM508 1516l280 342h297l-346 -342h-231zM926 1516l280 342h297l-346 -342h-231z" />
<glyph unicode="&#x151;" horiz-adv-x="1351" d="M86 571q0 131 37 240.5t108.5 190.5t185 126.5t259.5 45.5q145 0 260 -49.5t186.5 -134t108.5 -190.5t37 -225q0 -120 -37 -226.5t-108.5 -191.5t-186.5 -134.5t-260 -49.5t-259 46t-185.5 127.5t-108.5 189t-37 235.5zM362 1276l199 434h285l-293 -434h-191zM403 573 q0 -374 275 -374q272 0 272 374q0 373 -272 373q-275 0 -275 -373zM772 1276l199 434h284l-292 -434h-191z" />
<glyph unicode="&#x170;" horiz-adv-x="1613" d="M174 549v844h324v-842q0 -342 309 -342q307 0 307 342v842h324v-840q0 -271 -162.5 -425.5t-468.5 -154.5q-308 0 -470.5 154t-162.5 422zM481 1516l281 342h297l-346 -342h-232zM899 1516l281 342h297l-347 -342h-231z" />
<glyph unicode="&#x171;" horiz-adv-x="1366" d="M164 418v731h313v-692q0 -141 35.5 -196.5t132.5 -55.5q110 0 238 86l2 858h313v-1147h-233l-35 98q-195 -125 -385 -125q-91 0 -158.5 21.5t-109.5 59t-67.5 95t-35.5 121t-10 146.5zM360 1276l199 434h285l-293 -434h-191zM770 1276l199 434h284l-292 -434h-191z" />
<glyph unicode="&#x2c6;" horiz-adv-x="1024" d="M125 1208l231 430h310l233 -430h-244l-143 240l-145 -240h-242z" />
<glyph unicode="&#x2da;" horiz-adv-x="1024" d="M217 1477q0 98 78.5 169.5t216.5 71.5q137 0 215 -71.5t78 -169.5t-78 -171t-215 -73q-138 0 -216.5 73t-78.5 171zM410 1477q0 -47 28 -77t74 -30t74 30t28 77q0 45 -28 74.5t-74 29.5t-74 -29.5t-28 -74.5z" />
<glyph unicode="&#x2dc;" horiz-adv-x="1024" d="M119 1282q10 160 75.5 252t167.5 92q50 0 102 -27.5t98 -55t83 -27.5q31 0 52 29.5t36 96.5l172 -8q-11 -150 -78 -247t-165 -97q-53 0 -107 28t-99 55.5t-77 27.5q-31 0 -52 -30t-36 -97z" />
<glyph unicode="&#x2000;" horiz-adv-x="929" />
<glyph unicode="&#x2001;" horiz-adv-x="1858" />
<glyph unicode="&#x2002;" horiz-adv-x="929" />
<glyph unicode="&#x2003;" horiz-adv-x="1858" />
<glyph unicode="&#x2004;" horiz-adv-x="619" />
<glyph unicode="&#x2005;" horiz-adv-x="464" />
<glyph unicode="&#x2006;" horiz-adv-x="309" />
<glyph unicode="&#x2007;" horiz-adv-x="309" />
<glyph unicode="&#x2008;" horiz-adv-x="232" />
<glyph unicode="&#x2009;" horiz-adv-x="371" />
<glyph unicode="&#x200a;" horiz-adv-x="103" />
<glyph unicode="&#x2010;" horiz-adv-x="595" d="M41 477v223h514v-223h-514z" />
<glyph unicode="&#x2011;" horiz-adv-x="595" d="M41 477v223h514v-223h-514z" />
<glyph unicode="&#x2012;" horiz-adv-x="595" d="M41 477v223h514v-223h-514z" />
<glyph unicode="&#x2013;" horiz-adv-x="1024" d="M0 477v223h1024v-223h-1024z" />
<glyph unicode="&#x2014;" horiz-adv-x="2048" d="M256 477v223h1536v-223h-1536z" />
<glyph unicode="&#x2018;" horiz-adv-x="681" d="M167 1032q-2 98 20 174.5t67 142t104 113.5t136 88l100 -129q-56 -42 -86 -109t-32.5 -143t11 -152.5t41.5 -150.5l-329 -45q-30 113 -32 211z" />
<glyph unicode="&#x2019;" horiz-adv-x="681" d="M88 950q56 43 86 109.5t32.5 143t-11 152.5t-41.5 150l329 45q30 -113 32 -211t-20 -174.5t-67.5 -142t-104.5 -113.5t-137 -88z" />
<glyph unicode="&#x201a;" horiz-adv-x="681" d="M88 -240q56 42 86 108.5t32.5 142.5t-11 152.5t-41.5 149.5l329 47q30 -113 32 -211t-20 -175t-67.5 -142t-104.5 -113.5t-137 -89.5z" />
<glyph unicode="&#x201c;" horiz-adv-x="1241" d="M167 1032q-2 98 20 174.5t67 142t104 113.5t136 88l100 -129q-56 -42 -86 -109t-32.5 -143t11 -152.5t41.5 -150.5l-329 -45q-30 113 -32 211zM726 1032q-2 98 20 174.5t67 142t104 113.5t136 88l100 -129q-56 -42 -86 -109t-32.5 -143t11 -152.5t41.5 -150.5l-329 -45 q-30 113 -32 211z" />
<glyph unicode="&#x201d;" horiz-adv-x="1241" d="M88 950q56 43 86 109.5t32.5 143t-11 152.5t-41.5 150l329 45q30 -113 32 -211t-20 -174.5t-67.5 -142t-104.5 -113.5t-137 -88zM647 950q56 43 86 109.5t32.5 143t-11 152.5t-41.5 150l329 45q30 -113 32 -211t-20 -174.5t-67.5 -142t-104.5 -113.5t-137 -88z" />
<glyph unicode="&#x201e;" horiz-adv-x="1241" d="M88 -240q56 42 86 108.5t32.5 142.5t-11 152.5t-41.5 149.5l329 47q30 -113 32 -211t-20 -175t-67.5 -142t-104.5 -113.5t-137 -89.5zM647 -240q56 42 86 108.5t32.5 142.5t-11 152.5t-41.5 149.5l329 47q30 -113 32 -211t-20 -175t-67.5 -142t-104.5 -113.5t-137 -89.5z " />
<glyph unicode="&#x2026;" horiz-adv-x="2011" d="M147 178q0 80 56.5 136.5t136.5 56.5q79 0 135.5 -56.5t56.5 -136.5t-56 -136t-136 -56t-136.5 56.5t-56.5 135.5zM813 178q0 80 56.5 136.5t136.5 56.5q79 0 135.5 -56.5t56.5 -136.5t-56 -136t-136 -56t-136.5 56.5t-56.5 135.5zM1477 178q0 80 56.5 136.5t135.5 56.5 t136 -56.5t57 -136.5q0 -79 -56.5 -135.5t-136.5 -56.5q-79 0 -135.5 56t-56.5 136z" />
<glyph unicode="&#x202f;" horiz-adv-x="371" />
<glyph unicode="&#x2039;" horiz-adv-x="737" d="M98 530l324 433l221 -158l-209 -275l209 -274l-221 -158z" />
<glyph unicode="&#x203a;" horiz-adv-x="737" d="M94 256l209 274l-209 275l221 158l324 -433l-324 -432z" />
<glyph unicode="&#x205f;" horiz-adv-x="464" />
<glyph unicode="&#x20ac;" d="M127 426v225h154v56v43h-154v225h184q52 207 186 324.5t349 117.5q186 0 325 -90l-73 -221q-94 76 -201 76q-197 0 -260 -207h397v-225h-430v-43v-54h430v-225h-397q64 -219 262 -219q105 0 207 74l68 -217q-135 -95 -328 -95q-215 0 -349 121.5t-186 333.5h-184z" />
<glyph unicode="&#x2122;" horiz-adv-x="1847" d="M82 1280v145h586v-145h-181v-584h-223v584h-182zM782 696v729h232l178 -282l178 282h232v-729h-224v187l13 264l-134 -219h-133l-131 217l13 -262v-187h-224z" />
<glyph unicode="&#x25fc;" horiz-adv-x="1146" d="M0 0v1147h1147v-1147h-1147z" />
</font>
</defs>
</svg>
