<?xml version="1.0" standalone="no"?>
<!DOCTYPE svg PUBLIC "-//W3C//DTD SVG 1.1//EN" "http://www.w3.org/Graphics/SVG/1.1/DTD/svg11.dtd" >
<svg xmlns="http://www.w3.org/2000/svg" xmlns:xlink="http://www.w3.org/1999/xlink" version="1.1">
<metadata></metadata>
<defs>
<font id="martel_sansheavy" horiz-adv-x="1359" >
<font-face units-per-em="2048" ascent="1638" descent="-410" />
<missing-glyph horiz-adv-x="512" />
<glyph horiz-adv-x="0" />
<glyph horiz-adv-x="682" />
<glyph unicode="&#xd;" horiz-adv-x="0" />
<glyph unicode=" "  horiz-adv-x="512" />
<glyph unicode="&#x09;" horiz-adv-x="512" />
<glyph unicode="&#xa0;" horiz-adv-x="512" />
<glyph unicode="!" horiz-adv-x="716" d="M143 203q0 89 63 152t152 63t152 -63t63 -152t-63 -152t-152 -63t-152 63t-63 152zM160 1393h377l-21 -914h-315z" />
<glyph unicode="&#x22;" horiz-adv-x="1310" d="M188 1577h377l-53 -791h-270zM745 1577h377l-53 -791h-270z" />
<glyph unicode="#" horiz-adv-x="1685" d="M45 311l80 260h205l76 250h-203l80 260h202l97 312h336l-97 -312h279l96 312h336l-96 -312h204l-79 -260h-205l-76 -250h205l-80 -260h-205l-96 -311h-336l96 311h-278l-97 -311h-335l96 311h-205zM666 571h278l76 250h-279z" />
<glyph unicode="$" d="M131 111l70 251q221 -83 407 -83q70 0 126.5 11.5t95 40t38.5 70.5q0 44 -38.5 79t-100 59.5t-135.5 49t-148 55.5t-135.5 70.5t-100 102.5t-38.5 144q0 155 101.5 256t283.5 137v282h313v-270q171 -19 297 -84l-71 -250q-184 78 -326 78q-108 0 -173 -32.5t-65 -90.5 q0 -39 38.5 -70.5t100 -55.5t135.5 -48.5t148.5 -57t136 -74t100 -106.5t38.5 -147v-2q0 -148 -91 -247t-268 -138v-295h-313v270q-250 9 -426 95z" />
<glyph unicode="%" horiz-adv-x="2349" d="M43 969q0 67 17 130.5t53 119.5t87.5 97.5t125 66t161.5 24.5q110 0 197 -37t140.5 -99t81.5 -139t28 -161t-28 -161t-81.5 -139t-140.5 -99t-197 -37q-88 0 -161.5 24t-125 65.5t-87.5 97t-53 118t-17 129.5zM369 971q0 -112 26 -163.5t92 -51.5q67 0 94 52t27 163 t-27 163t-94 52q-66 0 -92 -51.5t-26 -163.5zM635 59l819 1418l260 -158l-819 -1417zM1415 412q0 85 28 162t81 139.5t140 99.5t196 37q110 0 197 -37t140 -99t81 -139t28 -161t-28 -161t-81 -139.5t-140 -99.5t-197 -37q-109 0 -196 37t-140 99t-81 138.5t-28 160.5z M1741 414q0 -112 26 -163.5t93 -51.5t93.5 51.5t26.5 163.5t-26.5 163.5t-93.5 51.5t-93 -51.5t-26 -163.5z" />
<glyph unicode="&#x26;" horiz-adv-x="1513" d="M16 375q0 135 74 243t215 175q-61 71 -88 124t-27 121q0 161 113 269t326 108q203 0 316.5 -96t113.5 -234q0 -119 -68.5 -207t-212.5 -165l180 -199q84 153 134 354l342 -30q-29 -137 -98 -274.5t-167 -254.5q89 -61 179 -61q54 0 100 12l59 -248l2 4q-76 -28 -204 -28 q-99 0 -183.5 28t-173.5 93q-198 -132 -405 -132q-249 0 -388 110t-139 288zM387 408q0 -71 52 -119.5t147 -48.5q90 0 172 51l-269 299q-102 -87 -102 -180v-2zM541 1065q0 -80 61 -152q59 41 85 77.5t26 78.5q0 36 -23 63t-63 27v2q-41 0 -63.5 -27.5t-22.5 -68.5z" />
<glyph unicode="'" horiz-adv-x="753" d="M188 1577h377l-53 -791h-270z" />
<glyph unicode="(" horiz-adv-x="737" d="M113 602q0 269 99 491t251 369l209 -172q-83 -114 -141 -302t-58 -386q0 -205 57 -387t140 -303l-207 -170q-152 147 -251 369t-99 491z" />
<glyph unicode=")" horiz-adv-x="737" d="M66 -86q82 114 140 302t58 386q0 206 -57 388t-139 302l206 170q98 -95 173.5 -216t126.5 -291t51 -353t-51 -353t-126.5 -291t-173.5 -216z" />
<glyph unicode="*" horiz-adv-x="1130" d="M74 918l96 296l305 -172l-67 351h315l-64 -340l299 161l99 -296l-367 -39l283 -240l-271 -186l-137 313l-137 -313l-270 186l282 240z" />
<glyph unicode="+" d="M66 500v252h479v477h272v-477h477v-252h-477v-500h-272v500h-479z" />
<glyph unicode="," horiz-adv-x="718" d="M88 -240q58 45 87.5 117.5t30 155t-15.5 163.5t-47 156l379 54q33 -125 35 -232.5t-22 -189.5t-73.5 -152t-113.5 -121.5t-149 -95.5z" />
<glyph unicode="-" horiz-adv-x="614" d="M41 471v252h532v-252h-532z" />
<glyph unicode="." horiz-adv-x="718" d="M143 203q0 89 63 152t152 63t152 -63t63 -152t-63 -152t-152 -63t-152 63t-63 152z" />
<glyph unicode="/" horiz-adv-x="921" d="M-14 -483l587 1933h363l-590 -1933h-360z" />
<glyph unicode="0" d="M92 709q0 119 21.5 223t68 193.5t115 153.5t166 100t217.5 36t217.5 -36t166 -100t115 -153.5t68 -193.5t21.5 -223q0 -122 -21.5 -230.5t-68 -201t-114.5 -159.5t-166.5 -105t-217.5 -38t-217.5 38t-166.5 105t-114.5 159.5t-68 201t-21.5 230.5zM461 709 q0 -96 12 -177.5t36.5 -148.5t68 -105t102.5 -38t102.5 38t68 105t36.5 148.5t12 177.5q0 91 -12 167.5t-36.5 139.5t-68 99t-102.5 36t-102.5 -36t-68 -99t-36.5 -139.5t-12 -167.5z" />
<glyph unicode="1" d="M219 0v256h332v881h-256l-51 256h676v-1137h331v-256h-1032z" />
<glyph unicode="2" d="M98 1262q224 153 498 153q147 0 270 -49t198 -142t75 -212q0 -307 -369 -633l-129 -115v-4h592v-260h-1092v195l332 321q154 147 229.5 264.5t75.5 192.5q0 83 -61 130.5t-176 47.5q-172 0 -371 -137z" />
<glyph unicode="3" d="M100 74l70 252q216 -84 412 -84q123 0 188.5 45.5t65.5 122.5q0 81 -55.5 131.5t-151.5 50.5q-108 0 -226 -33l-22 258q193 48 247 69q104 42 125 111q7 21 7 47q0 47 -41.5 78t-110.5 31q-185 0 -395 -109l-72 246q201 127 488 127q225 0 361 -96.5t136 -257.5 q0 -186 -213 -303l2 2q129 -40 208 -126t79 -204q0 -193 -165.5 -324t-454.5 -131q-131 0 -260.5 25.5t-221.5 71.5z" />
<glyph unicode="4" d="M55 299v203l682 891h359v-834h229v-260h-229v-299h-369v299h-672zM401 559h326v213l8 250h-2l-164 -244z" />
<glyph unicode="5" d="M129 70l70 252q206 -84 391 -84q140 0 207 52.5t67 145.5q0 199 -250 199q-142 0 -362 -72l-47 35l67 793h916v-261h-590l-27 -235q43 6 84 6v-2q270 0 423 -122t153 -318q0 -99 -42.5 -186.5t-122 -154.5t-202.5 -106t-274 -39q-125 0 -249.5 25.5t-211.5 71.5z" />
<glyph unicode="6" d="M109 555q0 369 244.5 595t668.5 265l47 -252q-107 -22 -181.5 -44t-145.5 -55.5t-120 -82.5t-81 -115q93 35 194 35q120 0 220 -40t163.5 -105.5t98 -147.5t34.5 -168q0 -94 -39 -178.5t-110 -150t-180.5 -104t-241.5 -38.5q-261 0 -416 148t-155 438zM477 512 q0 -138 55 -210.5t148 -72.5l-2 2q98 0 150.5 54.5t52.5 136.5q0 95 -50.5 158t-138.5 63q-118 0 -215 -84v-47z" />
<glyph unicode="7" d="M98 1133v260h1164v-217l-592 -1176h-424l641 1128v5h-789z" />
<glyph unicode="8" d="M113 350q0 215 237 348q-196 109 -196 295q0 87 33 162t96.5 134t166 92.5t232.5 33.5q128 0 230.5 -31.5t165 -84t95.5 -117t33 -135.5q0 -98 -58.5 -172t-170.5 -134h2q80 -39 135.5 -81.5t94 -110.5t38.5 -152q0 -88 -34 -163t-101 -133.5t-177.5 -92t-252.5 -33.5 q-143 0 -255 32t-178.5 86t-101 119.5t-34.5 137.5zM483 371q0 -56 50 -95.5t151 -39.5l2 -3q100 0 148.5 41t48.5 101q0 29 -12.5 55t-33 45.5t-53 38.5t-64 33.5t-75.5 30.5q-162 -75 -162 -207zM524 1014q0 -54 51.5 -92.5t149.5 -77.5q115 82 115 182q0 55 -39 92 t-117 37q-79 0 -119.5 -41t-40.5 -100z" />
<glyph unicode="9" d="M109 944q0 94 39 178.5t110 150t180.5 104t241.5 38.5q261 0 416 -148t155 -438q0 -369 -244.5 -595t-668.5 -265l-47 252q107 22 181.5 44t145.5 55.5t120 82.5t81 115q-93 -35 -194 -35q-120 0 -220 40t-163.5 105.5t-98 147.5t-34.5 168zM477 965q0 -95 50.5 -158.5 t138.5 -63.5l2 -2q118 0 215 84v47q0 138 -55 210.5t-148 72.5q-98 0 -150.5 -54.5t-52.5 -135.5z" />
<glyph unicode=":" horiz-adv-x="718" d="M143 203q0 89 63 152t152 63t152 -63t63 -152t-63 -152t-152 -63t-152 63t-63 152zM143 973q0 89 63 152t152 63t152 -63t63 -152t-63 -152t-152 -63t-152 63t-63 152z" />
<glyph unicode=";" horiz-adv-x="718" d="M88 -240q58 45 87.5 117.5t30 155t-15.5 163.5t-47 156l379 54q33 -125 35 -232.5t-22 -189.5t-73.5 -152t-113.5 -121.5t-149 -95.5zM143 973q0 89 63 152t152 63t152 -63t63 -152t-63 -152t-152 -63t-152 63t-63 152z" />
<glyph unicode="&#x3c;" d="M66 492v243l1228 447v-267l-907 -301l907 -301v-266z" />
<glyph unicode="=" d="M66 248v252h1228v-252h-1228zM66 752v252h1228v-252h-1228z" />
<glyph unicode="&#x3e;" d="M66 47v266l907 301l-907 301v267l1228 -447v-243z" />
<glyph unicode="?" horiz-adv-x="1103" d="M143 1130v265q183 0 327 -20.5t237 -55.5t153.5 -84.5t85.5 -103.5t25 -117q0 -136 -108 -230t-308 -161l-12 -144h-258l-21 387q64 10 104.5 17t83 17t67 20.5t45.5 24.5t29.5 31.5t8.5 39.5q0 114 -459 114zM201 203q0 89 63 152t152 63t152 -63t63 -152t-63 -152 t-152 -63t-152 63t-63 152z" />
<glyph unicode="@" horiz-adv-x="1959" d="M80 539q0 178 55.5 325t149 245.5t219.5 166.5t262.5 98.5t282.5 30.5q159 0 294.5 -38.5t232.5 -106.5t165.5 -159.5t101.5 -198t33 -222.5t-31.5 -215.5t-84 -169t-121 -119t-143 -73t-148.5 -23.5q-165 0 -240 110q-129 -112 -258 -112q-100 0 -164.5 69t-64.5 175v-3 q0 89 40 151t135.5 113t266.5 99q-4 115 -102 115q-124 0 -285 -117l-49 211q201 133 385 133q169 0 242 -92t73 -285v-252q0 -47 14 -67.5t48 -20.5q62 0 117.5 101t56.5 270q1 99 -31.5 184.5t-95 151t-161.5 103.5t-224 38q-136 0 -252.5 -37t-208.5 -110t-144.5 -194 t-52.5 -277q0 -157 47 -277.5t131 -194t191.5 -110.5t234.5 -37q232 0 414 100l96 -217q-230 -133 -512 -133q-139 0 -269 31t-248.5 99.5t-206 168t-139.5 247t-52 325.5zM885 352q0 -49 59 -49q55 0 121 49v133q-108 -40 -144 -71.5t-36 -61.5z" />
<glyph unicode="A" horiz-adv-x="1447" d="M10 0l535 1411h356l537 -1411h-375l-107 322h-471l-104 -322h-371zM569 573h305l-153 463z" />
<glyph unicode="B" horiz-adv-x="1417" d="M182 0v1393h557q267 0 400 -81t133 -259q0 -114 -69 -198.5t-199 -117.5h-3q161 -32 246.5 -127t85.5 -233q0 -188 -150.5 -282.5t-443.5 -94.5h-557zM551 256h188q226 0 226 176t-226 176h-188v-352zM551 864h188q164 0 164 142q0 73 -41.5 102t-122.5 29h-188v-273z " />
<glyph unicode="C" horiz-adv-x="1396" d="M92 698q0 114 31.5 218.5t97.5 195.5t159 158.5t224 106t285 38.5q237 0 418 -92l-74 -258q-172 86 -344 86q-134 0 -232.5 -62t-147 -164t-48.5 -229q0 -131 44.5 -232t139 -162.5t227.5 -61.5q170 0 367 84l70 -252q-85 -42 -201.5 -69.5t-235.5 -27.5 q-155 0 -284.5 39t-220 107t-153.5 160t-92.5 197t-29.5 220z" />
<glyph unicode="D" horiz-adv-x="1591" d="M184 0v1393h578q177 0 318.5 -53.5t232 -147.5t138.5 -220t48 -274q0 -151 -48 -278t-139 -221t-232 -146.5t-318 -52.5h-578zM553 260h209q174 0 271 118.5t97 317.5q0 196 -97.5 316.5t-270.5 120.5h-209v-873z" />
<glyph unicode="E" horiz-adv-x="1230" d="M184 0v1393h903v-256h-534v-273h453v-256h-453v-352h575v-256h-944z" />
<glyph unicode="F" horiz-adv-x="1128" d="M184 0v1393h903v-260h-534v-349h453v-260h-453v-524h-369z" />
<glyph unicode="G" horiz-adv-x="1456" d="M92 698q0 114 31.5 218.5t97.5 195.5t159 158.5t224 106t285 38.5q237 0 418 -92l-74 -258q-172 86 -344 86q-134 0 -232.5 -62t-147 -164t-48.5 -229q0 -131 44.5 -232t139 -162.5t227.5 -61.5q64 0 136 10v438h356v-616q-99 -43 -229 -70t-263 -27q-155 0 -284.5 39 t-220 107t-153.5 160t-92.5 197t-29.5 220z" />
<glyph unicode="H" horiz-adv-x="1677" d="M184 0v1393h369v-527h571v527h369v-1393h-369v606h-571v-606h-369z" />
<glyph unicode="I" horiz-adv-x="737" d="M184 0v1393h369v-1393h-369z" />
<glyph unicode="J" horiz-adv-x="737" d="M-141 -473l22 258q82 -10 135 -10q88 0 128 51.5t40 157.5v1409h369v-1413q0 -226 -117.5 -347.5t-355.5 -121.5q-87 0 -221 16z" />
<glyph unicode="K" horiz-adv-x="1513" d="M184 0v1393h369v-605l475 605h424l-555 -641l606 -752h-444l-506 705v-705h-369z" />
<glyph unicode="L" horiz-adv-x="1148" d="M184 0v1393h369v-1137h575v-256h-944z" />
<glyph unicode="M" horiz-adv-x="1888" d="M184 0v1393h348l412 -682l412 682h348v-1393h-358v369l20 446l-283 -477h-278l-289 487l27 -456v-369h-359z" />
<glyph unicode="N" horiz-adv-x="1677" d="M184 0v1393h332l635 -867l-27 447v420h369v-1393l-332 -2l-635 872l27 -452v-418h-369z" />
<glyph unicode="O" horiz-adv-x="1695" d="M92 696q0 148 49 277t141.5 228t238 156.5t327.5 57.5q181 0 327 -57.5t238.5 -157t141.5 -228.5t49 -276q0 -148 -49 -277.5t-141.5 -229t-238 -157t-327.5 -57.5q-181 0 -327 57.5t-238.5 157.5t-141.5 229t-49 277zM461 696q0 -200 103 -328t284 -128t284 128t103 328 t-103 327.5t-284 127.5t-284 -127.5t-103 -327.5z" />
<glyph unicode="P" horiz-adv-x="1396" d="M184 0v1393h578q299 0 436 -111t137 -350t-137 -350t-436 -111h-209v-471h-369zM553 727h209q109 1 157 49.5t48 155.5q0 108 -48 156.5t-157 48.5h-209v-410z" />
<glyph unicode="Q" horiz-adv-x="1695" d="M92 696q0 148 49 277t141.5 228t238 156.5t327.5 57.5q181 0 327 -57.5t238.5 -157t141.5 -228.5t49 -276q0 -215 -99.5 -386.5t-287.5 -258.5l81 -96q146 -174 316 -174q136 0 258 67l35 -249q-153 -88 -301 -88q-167 0 -291.5 47t-218.5 159l-217 258h-31 q-181 0 -327 57.5t-238.5 157.5t-141.5 229t-49 277zM463 696q0 -200 103 -328t284 -128t284 128t103 328t-103 327.5t-284 127.5t-284 -127.5t-103 -327.5z" />
<glyph unicode="R" horiz-adv-x="1519" d="M184 2v1393h557q300 0 437 -101t137 -319q0 -281 -207 -381l391 -594h-426l-323 514h-197v-512h-369zM553 770h188q109 0 157 44.5t48 139.5q0 97 -48 141t-157 44h-188v-369z" />
<glyph unicode="S" horiz-adv-x="1257" d="M78 72l69 252q224 -84 408 -84q70 0 127 14t95 47t38 82q0 48 -38.5 85.5t-100 63.5t-135.5 52t-148 59.5t-135.5 75.5t-100 109.5t-38.5 154.5q0 203 158 317.5t428 114.5q107 0 215.5 -24t193.5 -68l-72 -250q-184 78 -325 78q-107 0 -172.5 -38t-65.5 -105 q0 -37 30 -68t79 -53t111.5 -47t128 -48.5t128 -59t111.5 -77.5t79 -106t30 -141q0 -204 -158 -318.5t-459 -114.5q-133 0 -261 26t-220 71z" />
<glyph unicode="T" horiz-adv-x="1208" d="M41 1133v260h1126v-260h-379v-1133h-368v1133h-379z" />
<glyph unicode="U" horiz-adv-x="1636" d="M164 557v836h368v-834q0 -168 72.5 -243.5t214.5 -75.5q140 0 212.5 75.5t72.5 243.5v834h369v-832q0 -275 -168.5 -430.5t-485.5 -155.5q-318 0 -486.5 155t-168.5 427z" />
<glyph unicode="V" horiz-adv-x="1484" d="M20 1393h375l350 -1061l349 1061h370l-530 -1403h-381z" />
<glyph unicode="W" horiz-adv-x="2277" d="M20 1393h375l271 -1028l280 1028h357l284 -1035l287 1035h383l-483 -1403h-375l-277 956l-274 -956h-375z" />
<glyph unicode="X" horiz-adv-x="1527" d="M31 0l520 715l-494 678h432l273 -451l270 451h426l-491 -672l530 -721h-432l-305 475l-303 -475h-426z" />
<glyph unicode="Y" horiz-adv-x="1417" d="M10 1393h387l312 -570l315 570h383l-514 -832v-561h-369v555z" />
<glyph unicode="Z" horiz-adv-x="1452" d="M102 0v203l787 930h-760v260h1233v-219l-784 -914h813v-260h-1289z" />
<glyph unicode="[" horiz-adv-x="835" d="M147 -260v1683h541v-243l-184 -21v-1155l184 -20v-244h-541z" />
<glyph unicode="\" horiz-adv-x="921" d="M-14 1450h362l588 -1933h-361z" />
<glyph unicode="]" horiz-adv-x="835" d="M147 -16l185 20v1155l-185 21v243h541v-1683h-541v244z" />
<glyph unicode="^" d="M207 287l317 594h312l317 -594h-336l-137 317l-137 -317h-336z" />
<glyph unicode="_" horiz-adv-x="1024" d="M0 -315h1024v-252h-1024v252z" />
<glyph unicode="`" horiz-adv-x="1024" d="M211 1642h383l199 -434h-275z" />
<glyph unicode="a" horiz-adv-x="1261" d="M82 270q0 58 15 105.5t35 82.5t66 67.5t83 53.5t112 47.5t126 42.5t151 44l61 18v8q0 189 -172 189q-166 0 -401 -156l-68 246q300 170 590 170q95 0 166.5 -23t127 -76t84.5 -146.5t29 -225.5v-389q0 -44 18.5 -64t59.5 -20q39 0 78 10l10 -242q-108 -23 -221 -26h-9 q-196 0 -259 127q-175 -129 -361 -129q-140 0 -230.5 82.5t-90.5 203.5zM436 317q0 -40 21.5 -58.5t68.5 -18.5q86 0 203 73v217l-31 -10q-153 -55 -207.5 -97.5t-54.5 -105.5z" />
<glyph unicode="b" horiz-adv-x="1423" d="M164 0v1638h356v-522q125 72 273 72q121 0 220.5 -38.5t173 -112.5t114 -190t40.5 -263q0 -127 -31 -231t-84.5 -173t-126 -116t-153.5 -68t-170 -21q-166 0 -315 109l-33 -84h-264zM520 295q104 -64 213 -64h2q128 0 188 86.5t60 266.5q0 348 -229 348q-130 0 -234 -62 v-575z" />
<glyph unicode="c" horiz-adv-x="1130" d="M82 580q0 98 22 186t72 166t123.5 134t182.5 89t243 33q81 0 172.5 -19t149.5 -47l-68 -245q-137 55 -254 55q-135 0 -209 -89.5t-74 -260.5t66 -261t186 -90q81 0 149 25t154 74l97 -226q-72 -56 -177.5 -92.5t-222.5 -36.5q-154 0 -273 46.5t-192 129.5t-110 191.5 t-37 237.5z" />
<glyph unicode="d" horiz-adv-x="1423" d="M82 580q0 134 34.5 239t94 173.5t145.5 113t182.5 63.5t211.5 19q78 0 153 -14v464l354 -2v-1638h-264l-32 86q-145 -109 -330 -109q-121 0 -220.5 38.5t-173 113t-114.5 190.5t-41 263zM438 578q0 -349 230 -349q129 0 233 62v624q-73 15 -131 15q-168 0 -249 -86.5 t-81 -265.5h-2z" />
<glyph unicode="e" horiz-adv-x="1261" d="M82 580q0 277 155.5 442.5t454.5 165.5q237 0 361.5 -128t126.5 -364q0 -88 -27 -180h-719q11 -144 72.5 -214.5t187.5 -70.5q94 0 175.5 34t185.5 102l96 -226q-109 -87 -216 -126.5t-243 -39.5q-153 0 -271.5 46.5t-191.5 129.5t-110 191.5t-37 237.5zM446 748l390 2 v30q-1 84 -44.5 128t-119.5 44q-180 0 -226 -204z" />
<glyph unicode="f" horiz-adv-x="909" d="M31 911v150l174 69v74q0 217 116 333t351 116q78 0 221 -17l-23 -250q-90 11 -137 11q-172 0 -172 -197v-37h328v-252h-328v-911h-356v911h-174z" />
<glyph unicode="g" horiz-adv-x="1290" d="M51 -188q0 72 43.5 134t126.5 124q-108 64 -108 174q0 123 182 248q-83 54 -125.5 133.5t-42.5 171.5q0 78 30.5 147t89.5 124t154 87.5t215 32.5q105 0 191 -25h477l2 -250l-203 27q27 -64 27 -135q0 -78 -30.5 -147.5t-89.5 -125t-154 -88t-215 -32.5q-59 0 -109 6 q-49 -49 -49 -86q0 -34 20.5 -50t75.5 -16h305q189 0 295.5 -78t106.5 -211q0 -132 -90.5 -242.5t-251 -174.5t-355.5 -64q-114 0 -204.5 18.5t-148 49t-96 72.5t-54 85.5t-15.5 90.5zM393 -160q0 -86 178 -86q148 0 252.5 54t104.5 118h2q0 86 -148 86h-280h-25 q-84 -90 -84 -172zM471 803q0 -75 41.5 -115.5t108.5 -40.5t108 40t41 116t-40 114.5t-109 38.5q-68 0 -109 -39t-41 -114z" />
<glyph unicode="h" horiz-adv-x="1406" d="M164 0v1638h356v-540q172 90 332 90v-2q96 0 167 -23t115.5 -62.5t71.5 -100.5t37 -128.5t10 -154.5v-719h-356v674q0 143 -34.5 198.5t-129.5 55.5q-103 0 -213 -68v-858h-356z" />
<glyph unicode="i" horiz-adv-x="684" d="M137 1524q0 85 60 145t145 60t145 -60t60 -145t-60 -145t-145 -60t-145 60t-60 145zM164 0v1163h356v-1163h-356z" />
<glyph unicode="j" horiz-adv-x="684" d="M-168 -473l23 250q82 -10 137 -10q172 0 172 196v1200h356v-1204q0 -217 -116 -332.5t-351 -115.5q-87 0 -221 16zM137 1524q0 85 60 145t145 60t145 -60t60 -145t-60 -145t-145 -60t-145 60t-60 145z" />
<glyph unicode="k" horiz-adv-x="1310" d="M164 0v1638h356v-958l342 483h365l-391 -532l464 -631h-387l-393 586v-586h-356z" />
<glyph unicode="l" horiz-adv-x="684" d="M164 0v1638h356v-1638h-356z" />
<glyph unicode="m" horiz-adv-x="2140" d="M166 -2v1163h264l37 -96q201 121 387 121q231 0 324 -133q212 135 407 135l4 -2q96 0 167 -23t115.5 -62.5t71.5 -100.5t37.5 -128.5t10.5 -154.5v-719h-357v674q0 143 -34.5 198.5t-129.5 55.5q-106 0 -217 -72l-6 12q8 -63 8 -151v-719h-356v674q0 143 -34.5 198.5 t-129.5 55.5q-103 0 -213 -68v-858h-356z" />
<glyph unicode="n" horiz-adv-x="1406" d="M164 0v1163h264l37 -96q201 121 387 121v-2q96 0 167 -23t115.5 -62.5t71.5 -100.5t37 -128.5t10 -154.5v-719h-356v674q0 143 -34.5 198.5t-129.5 55.5q-103 0 -213 -68v-858h-356z" />
<glyph unicode="o" horiz-adv-x="1388" d="M82 580q0 181 66 316t205.5 213.5t340.5 78.5q120 0 221.5 -32.5t173 -89.5t121 -133.5t73.5 -164.5t24 -184q0 -120 -38.5 -228t-112.5 -194t-193.5 -136.5t-268.5 -50.5q-151 0 -269 46t-192 128.5t-112.5 191.5t-38.5 239zM442 582q0 -177 60 -264t192 -87t192 87 t60 264t-60 263.5t-192 86.5t-192 -86.5t-60 -263.5z" />
<glyph unicode="p" horiz-adv-x="1423" d="M166 -473v1638h264l33 -86q145 109 330 109l2 2q120 0 220.5 -40.5t173.5 -117.5t113.5 -194t40.5 -263q0 -160 -51.5 -278t-144.5 -186.5t-210 -101t-261 -32.5q-73 0 -154 15v-465h-356zM522 248q73 -15 131 -15h2q168 0 249 87t81 266q0 348 -229 348q-130 0 -234 -62 v-624z" />
<glyph unicode="q" horiz-adv-x="1423" d="M82 580q0 127 31 230.5t84.5 173t126 116.5t153.5 67.5t170 20.5q167 0 316 -109l32 84h265v-1648h-357v532q-125 -72 -272 -72q-121 0 -220.5 38.5t-173 113t-114.5 190.5t-41 263zM442 580q0 -349 230 -349h-2q129 0 233 62v575q-104 64 -213 64q-128 0 -188 -86 t-60 -266z" />
<glyph unicode="r" horiz-adv-x="966" d="M166 -2v1163h264l53 -137q108 88 209 125t213 37l2 -344q-105 0 -193 -12.5t-192 -49.5v-782h-356z" />
<glyph unicode="s" horiz-adv-x="1126" d="M82 51l68 245q192 -66 342 -65q200 0 200 99q0 32 -32.5 58.5t-84.5 47t-114.5 41.5t-125 49t-114.5 63t-84.5 90.5t-32.5 125.5q0 188 139 285.5t384 97.5q91 0 190 -17.5t172 -48.5l-67 -245q-157 55 -285 55q-180 0 -180 -84q0 -33 32.5 -58.5t84 -44t114.5 -37.5 t125.5 -47t114 -65.5t84 -99.5t32.5 -142q0 -180 -138.5 -279.5t-409.5 -99.5q-110 0 -221 21.5t-193 54.5z" />
<glyph unicode="t" horiz-adv-x="991" d="M31 911v150l219 88l98 313h213v-299h328v-252h-328v-471q1 -112 37 -156q35 -43 103 -42h6q96 3 184 53l55 -219q-62 -44 -146.5 -67t-164.5 -23q-217 0 -323.5 95.5t-106.5 272.5v557h-174z" />
<glyph unicode="u" horiz-adv-x="1406" d="M154 446v719h356v-673q0 -143 34.5 -198.5t129.5 -55.5q105 0 213 67v858l356 2v-1163h-264l-37 96q-201 -121 -387 -121q-96 0 -167 23t-115.5 62.5t-71.5 100.5t-37 128.5t-10 154.5z" />
<glyph unicode="v" horiz-adv-x="1273" d="M14 1163h363l262 -819l262 819h359l-447 -1173h-352z" />
<glyph unicode="w" horiz-adv-x="1828" d="M20 1163h363l174 -805l186 805h347l180 -805l180 805h358l-366 -1173h-348l-179 796l-180 -796h-348z" />
<glyph unicode="x" horiz-adv-x="1290" d="M10 0l439 600l-408 563h385l217 -360l217 360h381l-407 -557l446 -606h-387l-250 387l-250 -387h-383z" />
<glyph unicode="y" horiz-adv-x="1298" d="M18 -479l23 260q115 -37 199 -37q92 0 160 41t120 129l-483 1249h362l271 -821l258 821h356l-493 -1315q-130 -370 -510 -370q-153 0 -263 43z" />
<glyph unicode="z" horiz-adv-x="1142" d="M51 0v195l600 716h-569v252h979v-194l-600 -717h620v-252h-1030z" />
<glyph unicode="{" horiz-adv-x="835" d="M27 475v230q108 11 160.5 48.5t52.5 110.5q0 45 -19.5 128.5t-19.5 121.5q0 88 46 154t126 103.5t176.5 55.5t208.5 17v-227q-205 3 -205 -123q0 -65 19.5 -147.5t19.5 -127.5q0 -84 -41.5 -143t-116.5 -84v-4q77 -25 117.5 -84t40.5 -146q0 -45 -19.5 -126t-19.5 -146 q0 -123 205 -123v-229q-112 0 -208 18t-175.5 56t-125.5 104t-46 154q0 38 19.5 120t19.5 127q0 74 -53 112t-162 50z" />
<glyph unicode="|" horiz-adv-x="819" d="M225 -483v2136h369v-2136h-369z" />
<glyph unicode="}" horiz-adv-x="835" d="M78 -37q205 0 205 123q0 65 -19.5 146t-19.5 126q0 179 157 230v4q-75 25 -116 84t-41 143q0 45 19.5 127.5t19.5 147.5q0 126 -205 123v227q112 1 208.5 -17t176.5 -55.5t126 -103.5t46 -154q0 -38 -19.5 -121.5t-19.5 -128.5q0 -73 52.5 -110.5t160.5 -48.5v-230 q-109 -12 -162 -50t-53 -112q0 -45 19.5 -127t19.5 -120q0 -88 -46 -154t-125.5 -104t-175.5 -56t-208 -18v229z" />
<glyph unicode="~" d="M84 514q30 41 56.5 72.5t66 68.5t79 60.5t92.5 40t109 16.5q58 0 114.5 -22t94.5 -48.5t87 -48.5t94 -22q134 0 237 147l162 -157q-32 -42 -57 -71t-65 -66.5t-78 -60t-90.5 -38.5t-108.5 -16q-54 0 -109.5 22t-94 48.5t-89.5 48.5t-97 22q-74 0 -132 -42t-109 -112z" />
<glyph unicode="&#xa2;" d="M92 692q0 83 19 158.5t61.5 144.5t105 123.5t154.5 93.5t205 56v370h313v-374q88 -20 171.5 -60.5t140.5 -91.5l-68 -246q-204 158 -377 158q-174 0 -269 -84.5t-95 -245.5q0 -171 87 -260.5t246 -89.5q80 0 157.5 28t134.5 66t134 101l97 -226q-66 -69 -159.5 -124.5 t-199.5 -82.5v-360h-313v350q-137 19 -242.5 72t-171 132.5t-98.5 178t-33 213.5z" />
<glyph unicode="&#xa3;" d="M152 573v254h106q-25 87 -25 174q0 200 145.5 307t397.5 107q243 0 453 -92l-72 -250q-184 78 -326 78q-114 0 -175.5 -47t-61.5 -117q0 -78 35 -160h424v-254h-314q13 -57 13 -118q0 -95 -78 -195l563 -2v-260h-1063v195q219 116 219 260q0 62 -22 120h-219z" />
<glyph unicode="&#xa5;" d="M84 1393h377l223 -367l225 367h375l-350 -504h264v-254h-338v-72h338v-254h-338v-309h-358v309h-344v254h344v72h-344v254h272z" />
<glyph unicode="&#xa8;" horiz-adv-x="1024" d="M61 1503q0 75 56 131t131 56t130.5 -56t55.5 -131t-55.5 -130.5t-130.5 -55.5t-131 55.5t-56 130.5zM590 1503q0 75 55.5 131t130.5 56t131 -56t56 -131t-56 -130.5t-131 -55.5t-130.5 55.5t-55.5 130.5z" />
<glyph unicode="&#xa9;" horiz-adv-x="1675" d="M92 696q0 148 53.5 279.5t149 229t236.5 154t307 56.5t307 -56.5t236 -154t148.5 -229t53.5 -279.5t-53.5 -280t-148.5 -229.5t-236 -154.5t-307 -57t-307 57t-236.5 154.5t-149 229.5t-53.5 280zM348 696q0 -221 132 -367.5t358 -146.5t357.5 146.5t131.5 367.5 t-131.5 367.5t-357.5 146.5t-358 -146.5t-132 -367.5zM477 698q0 103 43 188.5t134.5 140t217.5 54.5q131 0 224 -49l-52 -182q-80 31 -137 31q-83 0 -130.5 -52.5t-47.5 -130.5q0 -82 43.5 -133t126.5 -51q56 0 131 31l66 -183q-97 -51 -232 -51q-96 0 -171.5 31.5 t-121.5 86t-70 123t-24 146.5z" />
<glyph unicode="&#xab;" horiz-adv-x="1323" d="M102 530l306 433l254 -179l-181 -254l181 -254l-254 -178zM666 530l305 433l254 -179l-181 -254l181 -254l-254 -178z" />
<glyph unicode="&#xad;" horiz-adv-x="614" d="M41 471v252h532v-252h-532z" />
<glyph unicode="&#xae;" horiz-adv-x="1048" d="M68 1051q0 197 132.5 326.5t325.5 129.5q126 0 230 -58t164.5 -163t60.5 -235q0 -194 -132 -325.5t-323 -131.5q-192 0 -325 131.5t-133 325.5zM203 1051q0 -141 93.5 -234.5t227.5 -93.5q135 0 229.5 93.5t94.5 234.5q0 143 -94.5 237t-229.5 94q-134 0 -227.5 -94 t-93.5 -237zM371 877v352h174q70 0 108.5 -34.5t38.5 -88.5h-2q0 -70 -47 -98l88 -131h-131l-63 104h-52v-104h-114zM483 1069h52q23 0 30.5 9t7.5 30q0 16 -7.5 24.5t-30.5 8.5h-52v-72z" />
<glyph unicode="&#xb4;" horiz-adv-x="1024" d="M231 1208l199 434h383l-307 -434h-275z" />
<glyph unicode="&#xb8;" horiz-adv-x="1024" d="M299 -150l137 252h230l-103 -190h-2q80 -11 132 -58.5t52 -115.5q0 -32 -11 -63.5t-39 -64t-71 -57t-112.5 -40t-157.5 -15.5l-45 158q101 0 138.5 18t37.5 50q0 23 -18 36t-49 13q-24 0 -56 -11z" />
<glyph unicode="&#xbb;" horiz-adv-x="1323" d="M98 276l181 254l-181 254l254 179l305 -433l-305 -432zM662 276l180 254l-180 254l253 179l306 -433l-306 -432z" />
<glyph unicode="&#xc1;" horiz-adv-x="1447" d="M10 0l535 1411h356l537 -1411h-375l-107 322h-471l-104 -322h-371zM551 1516l289 352h379l-367 -352h-301zM569 573h305l-153 463z" />
<glyph unicode="&#xc9;" horiz-adv-x="1230" d="M184 0v1393h903v-256h-534v-273h453v-256h-453v-352h575v-256h-944zM473 1516l289 352h379l-367 -352h-301z" />
<glyph unicode="&#xcd;" horiz-adv-x="737" d="M184 0v1393h369v-1393h-369zM199 1516l288 352h379l-366 -352h-301z" />
<glyph unicode="&#xd3;" horiz-adv-x="1695" d="M92 696q0 148 49 277t141.5 228t238 156.5t327.5 57.5q181 0 327 -57.5t238.5 -157t141.5 -228.5t49 -276q0 -148 -49 -277.5t-141.5 -229t-238 -157t-327.5 -57.5q-181 0 -327 57.5t-238.5 157.5t-141.5 229t-49 277zM461 696q0 -200 103 -328t284 -128t284 128t103 328 t-103 327.5t-284 127.5t-284 -127.5t-103 -327.5zM678 1516l289 352h379l-367 -352h-301z" />
<glyph unicode="&#xd6;" horiz-adv-x="1695" d="M92 696q0 148 49 277t141.5 228t238 156.5t327.5 57.5q181 0 327 -57.5t238.5 -157t141.5 -228.5t49 -276q0 -148 -49 -277.5t-141.5 -229t-238 -157t-327.5 -57.5q-181 0 -327 57.5t-238.5 157.5t-141.5 229t-49 277zM414 1686q0 69 50.5 119t119.5 50t119.5 -50 t50.5 -119t-50.5 -119.5t-119.5 -50.5t-119.5 50.5t-50.5 119.5zM461 696q0 -200 103 -328t284 -128t284 128t103 328t-103 327.5t-284 127.5t-284 -127.5t-103 -327.5zM942 1686q0 69 50.5 119t119.5 50t119.5 -50t50.5 -119t-50.5 -119.5t-119.5 -50.5t-119.5 50.5 t-50.5 119.5z" />
<glyph unicode="&#xda;" horiz-adv-x="1636" d="M164 557v836h368v-834q0 -168 72.5 -243.5t214.5 -75.5q140 0 212.5 75.5t72.5 243.5v834h369v-832q0 -275 -168.5 -430.5t-485.5 -155.5q-318 0 -486.5 155t-168.5 427zM649 1516l289 352h379l-367 -352h-301z" />
<glyph unicode="&#xdc;" horiz-adv-x="1636" d="M164 557v836h368v-834q0 -168 72.5 -243.5t214.5 -75.5q140 0 212.5 75.5t72.5 243.5v834h369v-832q0 -275 -168.5 -430.5t-485.5 -155.5q-318 0 -486.5 155t-168.5 427zM385 1686q0 69 50.5 119t119.5 50t119.5 -50t50.5 -119t-50.5 -119.5t-119.5 -50.5t-119.5 50.5 t-50.5 119.5zM913 1686q0 69 50.5 119t119.5 50t119.5 -50t50.5 -119t-50.5 -119.5t-119.5 -50.5t-119.5 50.5t-50.5 119.5z" />
<glyph unicode="&#xe1;" horiz-adv-x="1261" d="M82 270q0 58 15 105.5t35 82.5t66 67.5t83 53.5t112 47.5t126 42.5t151 44l61 18v8q0 189 -172 189q-166 0 -401 -156l-68 246q300 170 590 170q95 0 166.5 -23t127 -76t84.5 -146.5t29 -225.5v-389q0 -44 18.5 -64t59.5 -20q39 0 78 10l10 -242q-108 -23 -221 -26 q-204 -3 -268 127q-175 -129 -361 -129q-140 0 -230.5 82.5t-90.5 203.5zM436 317q0 -40 21.5 -58.5t68.5 -18.5q86 0 203 73v217l-31 -10q-153 -55 -207.5 -97.5t-54.5 -105.5zM469 1290l199 434h383l-308 -434h-274z" />
<glyph unicode="&#xe9;" horiz-adv-x="1261" d="M82 580q0 277 155.5 442.5t454.5 165.5q237 0 361.5 -128t126.5 -364q0 -88 -27 -180h-719q11 -144 72.5 -214.5t187.5 -70.5q94 0 175.5 34t185.5 102l96 -226q-109 -87 -216 -126.5t-243 -39.5q-153 0 -271.5 46.5t-191.5 129.5t-110 191.5t-37 237.5zM446 748l390 2 v30q-1 84 -44.5 128t-119.5 44q-180 0 -226 -204zM496 1290l198 434h383l-307 -434h-274z" />
<glyph unicode="&#xed;" horiz-adv-x="684" d="M164 0v1163h356v-1163h-356zM170 1290l199 434h383l-308 -434h-274z" />
<glyph unicode="&#xf3;" horiz-adv-x="1388" d="M82 580q0 181 66 316t205.5 213.5t340.5 78.5q120 0 221.5 -32.5t173 -89.5t121 -133.5t73.5 -164.5t24 -184q0 -120 -38.5 -228t-112.5 -194t-193.5 -136.5t-268.5 -50.5q-151 0 -269 46t-192 128.5t-112.5 191.5t-38.5 239zM442 582q0 -177 60 -264t192 -87t192 87 t60 264t-60 263.5t-192 86.5t-192 -86.5t-60 -263.5zM522 1290l199 434h383l-307 -434h-275z" />
<glyph unicode="&#xf6;" horiz-adv-x="1388" d="M82 580q0 181 66 316t205.5 213.5t340.5 78.5q120 0 221.5 -32.5t173 -89.5t121 -133.5t73.5 -164.5t24 -184q0 -120 -38.5 -228t-112.5 -194t-193.5 -136.5t-268.5 -50.5q-151 0 -269 46t-192 128.5t-112.5 191.5t-38.5 239zM244 1503q0 75 55.5 131t130.5 56t130.5 -56 t55.5 -131t-55.5 -130.5t-130.5 -55.5t-130.5 55.5t-55.5 130.5zM442 582q0 -177 60 -264t192 -87t192 87t60 264t-60 263.5t-192 86.5t-192 -86.5t-60 -263.5zM772 1503q0 75 55.5 131t130.5 56t131 -56t56 -131t-56 -130.5t-131 -55.5t-130.5 55.5t-55.5 130.5z" />
<glyph unicode="&#xfa;" horiz-adv-x="1406" d="M154 446v719h356v-673q0 -143 34.5 -198.5t129.5 -55.5q105 0 213 67v858l356 2v-1163h-264l-37 96q-201 -121 -387 -121q-96 0 -167 23t-115.5 62.5t-71.5 100.5t-37 128.5t-10 154.5zM520 1290l199 434h383l-307 -434h-275z" />
<glyph unicode="&#xfc;" horiz-adv-x="1406" d="M154 446v719h356v-673q0 -143 34.5 -198.5t129.5 -55.5q105 0 213 67v858l356 2v-1163h-264l-37 96q-201 -121 -387 -121q-96 0 -167 23t-115.5 62.5t-71.5 100.5t-37 128.5t-10 154.5zM242 1503q0 75 55.5 131t130.5 56t130.5 -56t55.5 -131t-55.5 -130.5t-130.5 -55.5 t-130.5 55.5t-55.5 130.5zM770 1503q0 75 55.5 131t130.5 56t131 -56t56 -131t-56 -130.5t-131 -55.5t-130.5 55.5t-55.5 130.5z" />
<glyph unicode="&#x150;" horiz-adv-x="1695" d="M92 696q0 148 49 277t141.5 228t238 156.5t327.5 57.5q181 0 327 -57.5t238.5 -157t141.5 -228.5t49 -276q0 -148 -49 -277.5t-141.5 -229t-238 -157t-327.5 -57.5q-181 0 -327 57.5t-238.5 157.5t-141.5 229t-49 277zM461 696q0 -200 103 -328t284 -128t284 128t103 328 t-103 327.5t-284 127.5t-284 -127.5t-103 -327.5zM504 1516l289 352h337l-366 -352h-260zM934 1516l289 352h338l-367 -352h-260z" />
<glyph unicode="&#x151;" horiz-adv-x="1388" d="M82 580q0 181 66 316t205.5 213.5t340.5 78.5q120 0 221.5 -32.5t173 -89.5t121 -133.5t73.5 -164.5t24 -184q0 -120 -38.5 -228t-112.5 -194t-193.5 -136.5t-268.5 -50.5q-151 0 -269 46t-192 128.5t-112.5 191.5t-38.5 239zM358 1290l199 434h322l-308 -434h-213z M442 582q0 -177 60 -264t192 -87t192 87t60 264t-60 263.5t-192 86.5t-192 -86.5t-60 -263.5zM788 1290l199 434h322l-308 -434h-213z" />
<glyph unicode="&#x170;" horiz-adv-x="1636" d="M164 557v836h368v-834q0 -168 72.5 -243.5t214.5 -75.5q140 0 212.5 75.5t72.5 243.5v834h369v-832q0 -275 -168.5 -430.5t-485.5 -155.5q-318 0 -486.5 155t-168.5 427zM475 1516l289 352h338l-367 -352h-260zM905 1516l289 352h338l-367 -352h-260z" />
<glyph unicode="&#x171;" horiz-adv-x="1406" d="M154 446v719h356v-673q0 -143 34.5 -198.5t129.5 -55.5q105 0 213 67v860h356v-1163h-264l-37 96q-201 -121 -387 -121q-96 0 -167 23t-115.5 62.5t-71.5 100.5t-37 128.5t-10 154.5zM356 1290l199 434h322l-308 -434h-213zM786 1290l199 434h322l-308 -434h-213z" />
<glyph unicode="&#x2c6;" horiz-adv-x="1024" d="M100 1208l236 430h352l236 -430h-275l-137 222l-137 -222h-275z" />
<glyph unicode="&#x2da;" horiz-adv-x="1024" d="M201 1487q0 101 82.5 174.5t228.5 73.5t228.5 -73.5t82.5 -174.5q0 -100 -83 -174t-228 -74t-228 74t-83 174zM416 1487q0 -42 26.5 -70t69.5 -28t69.5 28t26.5 70t-26.5 70t-69.5 28t-69.5 -28t-26.5 -70z" />
<glyph unicode="&#x2dc;" horiz-adv-x="1024" d="M102 1278q10 168 80 265t176 97q48 0 101.5 -23.5t102 -47t83.5 -23.5q56 0 84 115l193 -8q-11 -156 -82.5 -259.5t-173.5 -103.5q-51 0 -106.5 23.5t-103 47t-77.5 23.5q-56 0 -84 -114z" />
<glyph unicode="&#x2000;" horiz-adv-x="934" />
<glyph unicode="&#x2001;" horiz-adv-x="1868" />
<glyph unicode="&#x2002;" horiz-adv-x="934" />
<glyph unicode="&#x2003;" horiz-adv-x="1868" />
<glyph unicode="&#x2004;" horiz-adv-x="622" />
<glyph unicode="&#x2005;" horiz-adv-x="467" />
<glyph unicode="&#x2006;" horiz-adv-x="311" />
<glyph unicode="&#x2007;" horiz-adv-x="311" />
<glyph unicode="&#x2008;" horiz-adv-x="233" />
<glyph unicode="&#x2009;" horiz-adv-x="373" />
<glyph unicode="&#x200a;" horiz-adv-x="103" />
<glyph unicode="&#x2010;" horiz-adv-x="614" d="M41 471v252h532v-252h-532z" />
<glyph unicode="&#x2011;" horiz-adv-x="614" d="M41 471v252h532v-252h-532z" />
<glyph unicode="&#x2012;" horiz-adv-x="614" d="M41 471v252h532v-252h-532z" />
<glyph unicode="&#x2013;" horiz-adv-x="1024" d="M0 471v252h1024v-252h-1024z" />
<glyph unicode="&#x2014;" horiz-adv-x="2048" d="M256 471v252h1536v-252h-1536z" />
<glyph unicode="&#x2018;" horiz-adv-x="718" d="M162 1004.5q-2 107.5 22 189.5t73.5 152t113.5 121.5t149 95.5l111 -146q-58 -45 -88 -117.5t-30.5 -155t15.5 -163.5t47 -156l-378 -53q-33 125 -35 232.5z" />
<glyph unicode="&#x2019;" horiz-adv-x="718" d="M88 918q58 45 87.5 117.5t30 154.5t-15.5 163t-47 156l379 54q33 -125 35 -232.5t-22 -189.5t-73.5 -152t-113.5 -121.5t-149 -95.5z" />
<glyph unicode="&#x201a;" horiz-adv-x="718" d="M88 -240q58 45 87.5 117.5t30 155t-15.5 163.5t-47 156l379 54q33 -125 35 -232.5t-22 -189.5t-73.5 -152t-113.5 -121.5t-149 -95.5z" />
<glyph unicode="&#x201c;" horiz-adv-x="1331" d="M162 1004.5q-2 107.5 22 189.5t73.5 152t113.5 121.5t149 95.5l111 -146q-58 -45 -88 -117.5t-30.5 -155t15.5 -163.5t47 -156l-378 -53q-33 125 -35 232.5zM774 1004.5q-2 107.5 22 189.5t74 152t114 121.5t149 95.5l110 -146q-58 -45 -87.5 -117.5t-30 -155 t15.5 -163.5t47 -156l-379 -53q-33 125 -35 232.5z" />
<glyph unicode="&#x201d;" horiz-adv-x="1331" d="M88 918q58 45 87.5 117.5t30 154.5t-15.5 163t-47 156l379 54q33 -125 35 -232.5t-22 -189.5t-73.5 -152t-113.5 -121.5t-149 -95.5zM700 918q58 45 88 117.5t30.5 154.5t-15.5 163t-47 156l379 54q33 -125 35 -232.5t-22 -189.5t-74 -152t-114 -121.5t-149 -95.5z" />
<glyph unicode="&#x201e;" horiz-adv-x="1331" d="M88 -240q58 45 87.5 117.5t30 155t-15.5 163.5t-47 156l379 54q33 -125 35 -232.5t-22 -189.5t-73.5 -152t-113.5 -121.5t-149 -95.5zM700 -240q58 45 88 117.5t30.5 155t-15.5 163.5t-47 156l379 54q33 -125 35 -232.5t-22 -189.5t-74 -152t-114 -121.5t-149 -95.5z" />
<glyph unicode="&#x2026;" horiz-adv-x="2156" d="M143 203q0 89 63 152t152 63t152 -63t63 -152t-63 -152t-152 -63t-152 63t-63 152zM862 203q0 89 63 152t152 63t152 -63t63 -152t-63 -152t-152 -63t-152 63t-63 152zM1581 203q0 89 63 152t152 63t152 -63t63 -152t-63 -152t-152 -63t-152 63t-63 152z" />
<glyph unicode="&#x202f;" horiz-adv-x="373" />
<glyph unicode="&#x2039;" horiz-adv-x="759" d="M102 530l306 433l254 -179l-181 -254l181 -254l-254 -178z" />
<glyph unicode="&#x203a;" horiz-adv-x="759" d="M98 276l181 254l-181 254l254 179l305 -433l-305 -432z" />
<glyph unicode="&#x205f;" horiz-adv-x="467" />
<glyph unicode="&#x20ac;" d="M145 412v254h150v43v30h-150v254h187q57 197 195.5 310.5t357.5 113.5q191 0 327 -71l-73 -259q-95 66 -193 66q-173 0 -237 -160h385v-254h-428v-30v-43h428v-254h-385q65 -172 237 -172q99 0 199 63l67 -250q-132 -78 -329 -78q-217 0 -354.5 117.5t-194.5 319.5h-189z " />
<glyph unicode="&#x2122;" horiz-adv-x="1941" d="M82 1270v164h614v-164h-180v-602h-252v602h-182zM819 668v766h264l174 -285l175 285h264v-766h-252v190l14 264l-127 -215h-147l-127 215l14 -264v-190h-252z" />
<glyph unicode="&#x25fc;" horiz-adv-x="1167" d="M0 0v1167h1167v-1167h-1167z" />
</font>
</defs>
</svg>
